<svg xmlns="http://www.w3.org/2000/svg" xmlns:xlink="http://www.w3.org/1999/xlink" width="1500" zoomAndPan="magnify" viewBox="0 0 1125 374.999991" height="500" preserveAspectRatio="xMidYMid meet" version="1.0"><defs><g/></defs><rect x="-112.5" width="1350" fill="#ffffff" y="-37.499999" height="449.999989" fill-opacity="1"/><rect x="-112.5" width="1350" fill="#213555" y="-37.499999" height="449.999989" fill-opacity="1"/><g fill="#ffffff" fill-opacity="1"><g transform="translate(60.225344, 243.34485)"><g><path d="M 16.015625 -139.90625 C 25.703125 -141.15625 35.640625 -141.78125 45.828125 -141.78125 C 64.804688 -141.78125 79.226562 -137.332031 89.09375 -128.4375 C 98.96875 -119.539062 103.90625 -106.234375 103.90625 -88.515625 C 103.90625 -72.679688 98.5 -60.160156 87.6875 -50.953125 C 77.570312 -42.304688 64.5625 -37.984375 48.65625 -37.984375 C 46.84375 -37.984375 44.851562 -38.085938 42.6875 -38.296875 L 42.6875 0 L 16.015625 0 Z M 48.96875 -116.5625 C 46.875 -116.5625 44.78125 -116.492188 42.6875 -116.359375 L 42.6875 -61.3125 C 44.925781 -61.039062 47.648438 -60.90625 50.859375 -60.90625 C 54.066406 -60.90625 57.410156 -61.582031 60.890625 -62.9375 C 64.378906 -64.300781 67.3125 -66.203125 69.6875 -68.640625 C 74.644531 -73.734375 77.125 -80.429688 77.125 -88.734375 C 77.125 -107.285156 67.738281 -116.5625 48.96875 -116.5625 Z M 48.96875 -116.5625 "/></g></g></g><g fill="#ffffff" fill-opacity="1"><g transform="translate(198.197727, 243.34485)"><g><path d="M 38.40625 0 C 28.144531 0 21.34375 0.207031 18 0.625 L 18 -139.796875 C 19.675781 -139.378906 23.144531 -139.171875 28.40625 -139.171875 C 33.675781 -139.171875 39.796875 -139.3125 46.765625 -139.59375 L 46.765625 -25.109375 L 68.4375 -25.109375 C 74.707031 -25.109375 79.726562 -25.316406 83.5 -25.734375 C 83.007812 -9.410156 82.765625 -0.9375 82.765625 -0.3125 L 82.765625 0.734375 C 75.929688 0.242188 64.457031 0 48.34375 0 Z M 38.40625 0 "/></g></g></g><g fill="#ffffff" fill-opacity="1"><g transform="translate(318.282537, 243.34485)"><g><path d="M 28.140625 0.84375 C 22.148438 0.28125 15.140625 0 7.109375 0 L -1.15625 0 L 44.359375 -127.546875 C 46.390625 -133.273438 47.40625 -136.609375 47.40625 -137.546875 C 47.40625 -138.484375 47.367188 -139.054688 47.296875 -139.265625 L 47.40625 -139.484375 C 51.9375 -139.273438 56.75 -139.171875 61.84375 -139.171875 C 66.03125 -139.171875 71.050781 -139.238281 76.90625 -139.375 L 77.015625 -139.171875 C 76.867188 -138.890625 76.796875 -138.503906 76.796875 -138.015625 C 76.796875 -136.691406 77.84375 -133.171875 79.9375 -127.453125 L 126.40625 0.3125 C 125.007812 0.238281 123.367188 0.203125 121.484375 0.203125 C 121.484375 0.203125 119.671875 0.132812 116.046875 0 C 114.296875 0 112.722656 0 111.328125 0 L 95.109375 0 L 85.28125 -30.140625 L 37.984375 -30.140625 Z M 77.125 -55.25 L 61.3125 -103.90625 L 45.9375 -55.25 Z M 77.125 -55.25 "/></g></g></g><g fill="#ffffff" fill-opacity="1"><g transform="translate(474.142489, 243.34485)"><g><path d="M 18.9375 0 C 19.351562 -2.375 19.5625 -4.957031 19.5625 -7.75 L 19.5625 -139.171875 L 40.5 -139.171875 L 95.953125 -51.90625 L 95.953125 -132.046875 C 95.953125 -135.890625 95.601562 -138.265625 94.90625 -139.171875 L 123.15625 -139.171875 C 122.8125 -136.378906 122.640625 -133.304688 122.640625 -129.953125 L 122.640625 0 L 100.875 0 L 46.25 -83.8125 L 46.25 0 Z M 18.9375 0 "/></g></g></g><g fill="#ffffff" fill-opacity="1"><g transform="translate(646.948558, 243.34485)"><g><path d="M 21.234375 -139.59375 C 28.210938 -139.3125 32.4375 -139.171875 33.90625 -139.171875 L 41.4375 -139.171875 C 45.132812 -139.171875 48.097656 -139.445312 50.328125 -140 L 50.21875 0 L 21.234375 0 Z M 21.234375 -139.59375 "/></g></g></g><g fill="#ffffff" fill-opacity="1"><g transform="translate(749.14583, 243.34485)"><g><path d="M 80.359375 -141.78125 C 93.398438 -141.78125 104.523438 -139.515625 113.734375 -134.984375 L 113.734375 -102.96875 L 113.53125 -102.75 C 109.625 -108.75 101.394531 -112.726562 88.84375 -114.6875 C 85.144531 -115.3125 80.46875 -115.625 74.8125 -115.625 C 69.164062 -115.625 63.617188 -114.554688 58.171875 -112.421875 C 52.734375 -110.296875 48.269531 -107.28125 44.78125 -103.375 C 38.019531 -95.769531 34.640625 -84.925781 34.640625 -70.84375 C 34.640625 -54.445312 38.925781 -42.238281 47.5 -34.21875 C 54.613281 -27.519531 64.03125 -24.171875 75.75 -24.171875 C 89.007812 -24.171875 99.753906 -26.992188 107.984375 -32.640625 C 110.984375 -34.671875 113.53125 -37.1875 115.625 -40.1875 L 115.9375 -39.96875 L 115.9375 -10.671875 C 105.257812 -1.816406 90.890625 2.609375 72.828125 2.609375 C 51.546875 2.609375 34.875 -4.15625 22.8125 -17.6875 C 11.226562 -30.59375 5.4375 -47.679688 5.4375 -68.953125 C 5.4375 -91.484375 11.785156 -109.238281 24.484375 -122.21875 C 37.316406 -135.257812 55.941406 -141.78125 80.359375 -141.78125 Z M 80.359375 -141.78125 "/></g></g></g><g fill="#ffffff" fill-opacity="1"><g transform="translate(904.064361, 243.34485)"><g><path d="M 29.390625 -16.53125 C 23.046875 -22.601562 18.039062 -29.894531 14.375 -38.40625 C 10.71875 -46.914062 8.890625 -56.242188 8.890625 -66.390625 C 8.890625 -76.535156 10.597656 -86.144531 14.015625 -95.21875 C 17.441406 -104.289062 22.328125 -112.28125 28.671875 -119.1875 C 35.015625 -126.09375 42.6875 -131.582031 51.6875 -135.65625 C 60.6875 -139.738281 70.769531 -141.78125 81.9375 -141.78125 C 101.1875 -141.78125 117.40625 -135.710938 130.59375 -123.578125 C 144.675781 -110.597656 151.71875 -93.085938 151.71875 -71.046875 C 151.71875 -49.703125 144.460938 -31.945312 129.953125 -17.78125 C 121.023438 -9.0625 110.390625 -3.066406 98.046875 0.203125 C 91.972656 1.804688 84.875 2.609375 76.75 2.609375 C 68.625 2.609375 60.285156 0.9375 51.734375 -2.40625 C 43.191406 -5.75 35.742188 -10.457031 29.390625 -16.53125 Z M 37.984375 -67.8125 C 37.984375 -61.320312 39.0625 -55.351562 41.21875 -49.90625 C 43.382812 -44.46875 46.382812 -39.796875 50.21875 -35.890625 C 58.382812 -27.660156 68.882812 -23.546875 81.71875 -23.546875 C 93.925781 -23.546875 103.726562 -27.488281 111.125 -35.375 C 118.65625 -43.53125 122.421875 -54.65625 122.421875 -68.75 C 122.421875 -82 118.828125 -93.054688 111.640625 -101.921875 C 103.898438 -111.398438 93.300781 -116.140625 79.84375 -116.140625 C 66.789062 -116.140625 56.429688 -111.328125 48.765625 -101.703125 C 41.578125 -92.703125 37.984375 -81.40625 37.984375 -67.8125 Z M 37.984375 -67.8125 "/></g></g></g><path stroke-linecap="butt" transform="matrix(0.75, 0.000000000000000126, -0.000000000000000126, 0.75, 37.500011, 313.545829)" fill="none" stroke-linejoin="miter" d="M -0.0000147167 2.001395 L 337.979174 2.001395 " stroke="#ffffff" stroke-width="4" stroke-opacity="1" stroke-miterlimit="4"/><g fill="#ffffff" fill-opacity="1"><g transform="translate(290.983794, 328.920828)"><g><path d="M 28.46875 -33.078125 C 28.882812 -33.078125 29.242188 -33.066406 29.546875 -33.046875 C 29.847656 -33.035156 30.078125 -33.007812 30.234375 -32.96875 C 30.492188 -32.9375 31.023438 -32.84375 31.828125 -32.6875 C 32.554688 -32.5 33.003906 -32.40625 33.171875 -32.40625 C 33.234375 -32.40625 33.316406 -32.394531 33.421875 -32.375 C 33.535156 -32.363281 33.675781 -32.335938 33.84375 -32.296875 C 34.382812 -32.140625 34.773438 -31.945312 35.015625 -31.71875 C 35.253906 -31.5 35.453125 -31.132812 35.609375 -30.625 C 35.710938 -30.300781 35.710938 -30.046875 35.609375 -29.859375 C 35.515625 -29.765625 35.4375 -29.554688 35.375 -29.234375 C 35.3125 -28.972656 35.085938 -28.5 34.703125 -27.8125 C 34.316406 -27.125 33.757812 -26.207031 33.03125 -25.0625 C 32.414062 -24.125 31.753906 -23.25 31.046875 -22.4375 C 30.347656 -21.625 29.597656 -20.847656 28.796875 -20.109375 C 27.929688 -19.335938 27.070312 -18.53125 26.21875 -17.6875 C 25.375 -16.84375 24.585938 -15.972656 23.859375 -15.078125 L 22.84375 -14.015625 L 22.84375 -11.5625 C 22.78125 -9.675781 22.734375 -8.109375 22.703125 -6.859375 L 22.5625 -2.546875 C 22.53125 -1.484375 22.476562 -0.59375 22.40625 0.125 C 22.34375 0.84375 22.28125 1.378906 22.21875 1.734375 C 21.96875 2.753906 21.503906 3.359375 20.828125 3.546875 C 20.515625 3.679688 20.304688 3.765625 20.203125 3.796875 C 20.140625 3.828125 20.035156 3.859375 19.890625 3.890625 C 19.753906 3.921875 19.554688 3.953125 19.296875 3.984375 C 19.003906 4.015625 18.757812 4.046875 18.5625 4.078125 C 18.375 4.109375 18.234375 4.140625 18.140625 4.171875 C 18.015625 4.203125 17.851562 4.21875 17.65625 4.21875 C 17.46875 4.21875 17.210938 4.234375 16.890625 4.265625 C 16.441406 4.265625 16.160156 4.253906 16.046875 4.234375 C 15.941406 4.222656 15.757812 4.125 15.5 3.9375 C 15.082031 3.675781 14.632812 3.289062 14.15625 2.78125 C 13.675781 2.269531 13.3125 1.820312 13.0625 1.4375 C 12.09375 -0.03125 11.691406 -0.765625 11.859375 -0.765625 C 11.984375 -0.765625 12.015625 -0.8125 11.953125 -0.90625 C 11.921875 -1.007812 11.9375 -1.0625 12 -1.0625 C 12.09375 -1.0625 12.109375 -1.09375 12.046875 -1.15625 C 12.015625 -1.21875 12.113281 -1.21875 12.34375 -1.15625 C 12.851562 -1.019531 13.15625 -1.210938 13.25 -1.734375 C 13.28125 -1.890625 13.300781 -2.445312 13.3125 -3.40625 C 13.332031 -4.363281 13.34375 -5.722656 13.34375 -7.484375 C 13.34375 -9.242188 13.332031 -10.578125 13.3125 -11.484375 C 13.300781 -12.398438 13.28125 -12.925781 13.25 -13.0625 C 13.21875 -13.28125 13.175781 -13.410156 13.125 -13.453125 C 13.082031 -13.503906 12.945312 -13.5625 12.71875 -13.625 C 12.46875 -13.726562 12.171875 -13.914062 11.828125 -14.1875 C 11.492188 -14.457031 11.148438 -14.757812 10.796875 -15.09375 C 10.441406 -15.425781 10.113281 -15.757812 9.8125 -16.09375 C 9.507812 -16.4375 9.265625 -16.71875 9.078125 -16.9375 C 8.816406 -17.195312 8.5 -17.570312 8.125 -18.0625 C 7.757812 -18.5625 7.289062 -19.179688 6.71875 -19.921875 C 6.144531 -20.660156 5.632812 -21.351562 5.1875 -22 C 4.738281 -22.65625 4.335938 -23.226562 3.984375 -23.71875 C 3.378906 -24.644531 2.867188 -25.410156 2.453125 -26.015625 C 1.679688 -27.140625 1.203125 -28.066406 1.015625 -28.796875 C 0.816406 -29.597656 0.816406 -30.429688 1.015625 -31.296875 C 1.109375 -31.648438 1.25 -31.832031 1.4375 -31.84375 C 1.632812 -31.863281 1.75 -31.9375 1.78125 -32.0625 C 1.84375 -32.15625 1.90625 -32.1875 1.96875 -32.15625 C 2.0625 -32.125 2.125 -32.148438 2.15625 -32.234375 C 2.1875 -32.316406 2.316406 -32.320312 2.546875 -32.25 C 2.734375 -32.21875 3.289062 -32.171875 4.21875 -32.109375 C 6.8125 -31.984375 8.445312 -31.84375 9.125 -31.6875 C 10.4375 -31.238281 11.332031 -30.5625 11.8125 -29.65625 C 11.96875 -29.3125 12.191406 -28.960938 12.484375 -28.609375 C 12.609375 -28.453125 12.726562 -28.289062 12.84375 -28.125 C 12.957031 -27.96875 13.0625 -27.789062 13.15625 -27.59375 C 13.3125 -27.3125 13.445312 -27.023438 13.5625 -26.734375 C 13.675781 -26.441406 13.796875 -26.171875 13.921875 -25.921875 C 14.078125 -25.566406 14.226562 -25.253906 14.375 -24.984375 C 14.519531 -24.710938 14.625 -24.460938 14.6875 -24.234375 C 14.75 -24.046875 14.828125 -23.835938 14.921875 -23.609375 C 15.023438 -23.390625 15.140625 -23.148438 15.265625 -22.890625 C 15.515625 -22.441406 15.691406 -22.21875 15.796875 -22.21875 C 16.078125 -22.21875 16.472656 -22.472656 16.984375 -22.984375 L 17.46875 -23.515625 L 17.1875 -22.609375 C 17.125 -22.410156 17.035156 -22.132812 16.921875 -21.78125 C 16.804688 -21.4375 16.75 -21.25 16.75 -21.21875 L 16.609375 -20.78125 L 16.984375 -20.015625 C 17.210938 -19.566406 17.375 -19.296875 17.46875 -19.203125 C 17.53125 -19.140625 17.691406 -19.25 17.953125 -19.53125 C 18.210938 -19.851562 18.507812 -20.273438 18.84375 -20.796875 C 19.175781 -21.328125 19.566406 -21.960938 20.015625 -22.703125 C 20.109375 -22.859375 20.265625 -23.113281 20.484375 -23.46875 C 20.710938 -23.820312 20.84375 -24.015625 20.875 -24.046875 C 21.007812 -24.242188 21.234375 -24.613281 21.546875 -25.15625 C 21.867188 -25.695312 22.1875 -26.265625 22.5 -26.859375 C 22.820312 -27.453125 23.101562 -28.019531 23.34375 -28.5625 C 23.59375 -29.101562 23.71875 -29.488281 23.71875 -29.71875 C 23.675781 -29.71875 23.539062 -29.71875 23.3125 -29.71875 C 23.09375 -29.71875 22.9375 -29.679688 22.84375 -29.609375 C 22.75 -29.578125 22.507812 -29.367188 22.125 -28.984375 C 21.875 -28.640625 21.75 -28.515625 21.75 -28.609375 C 21.75 -28.671875 21.765625 -28.71875 21.796875 -28.75 C 21.859375 -29.007812 22 -29.28125 22.21875 -29.5625 C 22.445312 -29.851562 22.703125 -30.175781 22.984375 -30.53125 C 23.273438 -30.851562 23.4375 -31.078125 23.46875 -31.203125 C 23.59375 -31.390625 23.847656 -31.617188 24.234375 -31.890625 C 24.617188 -32.160156 24.988281 -32.378906 25.34375 -32.546875 C 25.789062 -32.796875 26.296875 -32.945312 26.859375 -33 C 27.421875 -33.050781 27.957031 -33.078125 28.46875 -33.078125 Z M 28.46875 -33.078125 "/></g></g></g><g fill="#ffffff" fill-opacity="1"><g transform="translate(326.551732, 328.920828)"><g><path d="M 18.8125 -25.6875 C 18.59375 -25.6875 18.234375 -25.613281 17.734375 -25.46875 C 17.234375 -25.320312 16.84375 -25.1875 16.5625 -25.0625 C 15.570312 -24.582031 14.765625 -24.015625 14.140625 -23.359375 C 13.515625 -22.703125 13.015625 -21.972656 12.640625 -21.171875 C 12.273438 -20.367188 12.003906 -19.503906 11.828125 -18.578125 C 11.648438 -17.648438 11.484375 -16.65625 11.328125 -15.59375 C 10.878906 -12.332031 11.085938 -9.757812 11.953125 -7.875 C 12.554688 -6.53125 13.363281 -5.472656 14.375 -4.703125 C 15.382812 -3.929688 16.640625 -3.546875 18.140625 -3.546875 C 19.066406 -3.546875 20.023438 -3.742188 21.015625 -4.140625 C 22.015625 -4.546875 22.816406 -5.085938 23.421875 -5.765625 C 23.867188 -6.242188 24.226562 -6.863281 24.5 -7.625 C 24.769531 -8.394531 24.992188 -9.195312 25.171875 -10.03125 C 25.347656 -10.863281 25.46875 -11.695312 25.53125 -12.53125 C 25.59375 -13.363281 25.625 -14.097656 25.625 -14.734375 C 25.625 -16.078125 25.546875 -17.421875 25.390625 -18.765625 C 25.234375 -20.109375 24.882812 -21.390625 24.34375 -22.609375 C 23.726562 -23.828125 23.117188 -24.546875 22.515625 -24.765625 C 22.421875 -24.828125 22.269531 -24.890625 22.0625 -24.953125 C 21.851562 -25.023438 21.695312 -25.09375 21.59375 -25.15625 C 21.46875 -25.21875 21.273438 -25.28125 21.015625 -25.34375 C 20.765625 -25.40625 20.503906 -25.457031 20.234375 -25.5 C 19.960938 -25.550781 19.695312 -25.59375 19.4375 -25.625 C 19.1875 -25.664062 18.976562 -25.6875 18.8125 -25.6875 Z M 19.203125 -32.921875 C 19.867188 -32.921875 20.546875 -32.910156 21.234375 -32.890625 C 21.921875 -32.878906 22.585938 -32.84375 23.234375 -32.78125 C 24.160156 -32.59375 24.984375 -32.382812 25.703125 -32.15625 C 26.421875 -31.9375 27.101562 -31.648438 27.75 -31.296875 C 28.445312 -30.910156 29.164062 -30.410156 29.90625 -29.796875 C 30.644531 -29.191406 31.332031 -28.515625 31.96875 -27.765625 C 32.601562 -27.015625 33.160156 -26.226562 33.640625 -25.40625 C 34.128906 -24.59375 34.484375 -23.785156 34.703125 -22.984375 C 34.929688 -22.191406 35.109375 -21.53125 35.234375 -21 C 35.359375 -20.46875 35.453125 -20.046875 35.515625 -19.734375 C 35.546875 -19.410156 35.566406 -18.9375 35.578125 -18.3125 C 35.597656 -17.6875 35.609375 -16.894531 35.609375 -15.9375 C 35.609375 -14.882812 35.582031 -13.835938 35.53125 -12.796875 C 35.488281 -11.753906 35.34375 -10.722656 35.09375 -9.703125 C 34.09375 -5.085938 32.191406 -1.613281 29.390625 0.71875 C 26.597656 3.050781 22.769531 4.21875 17.90625 4.21875 C 15.4375 4.1875 13.398438 3.914062 11.796875 3.40625 C 10.203125 2.894531 8.734375 2.046875 7.390625 0.859375 C 6.273438 -0.128906 5.273438 -1.332031 4.390625 -2.75 C 3.515625 -4.175781 2.882812 -5.660156 2.5 -7.203125 C 2.238281 -8.222656 2.066406 -9.363281 1.984375 -10.625 C 1.910156 -11.894531 1.921875 -13.25 2.015625 -14.6875 C 2.171875 -17.53125 2.710938 -20.21875 3.640625 -22.75 C 4.578125 -25.28125 6.148438 -27.503906 8.359375 -29.421875 C 9.921875 -30.765625 11.613281 -31.679688 13.4375 -32.171875 C 15.257812 -32.671875 17.179688 -32.921875 19.203125 -32.921875 Z M 19.203125 -32.921875 "/></g></g></g><g fill="#ffffff" fill-opacity="1"><g transform="translate(363.127665, 328.920828)"><g><path d="M 30.28125 -32.921875 C 31.976562 -32.859375 32.941406 -32.78125 33.171875 -32.6875 C 33.554688 -32.53125 33.921875 -32.28125 34.265625 -31.9375 C 34.617188 -31.601562 34.84375 -31.328125 34.9375 -31.109375 C 35.164062 -30.398438 35.21875 -29.675781 35.09375 -28.9375 C 34.925781 -28.300781 34.800781 -27.132812 34.71875 -25.4375 C 34.644531 -23.738281 34.53125 -21.515625 34.375 -18.765625 C 34.113281 -14.734375 33.898438 -11.5 33.734375 -9.0625 C 33.578125 -6.632812 33.421875 -4.972656 33.265625 -4.078125 C 33.234375 -3.753906 33.203125 -3.382812 33.171875 -2.96875 C 33.140625 -2.5625 33.109375 -2.066406 33.078125 -1.484375 C 33.003906 -0.398438 33.003906 0.332031 33.078125 0.71875 C 33.109375 0.976562 33.125 1.15625 33.125 1.25 C 33.125 1.34375 33.109375 1.410156 33.078125 1.453125 C 33.046875 1.503906 33.003906 1.546875 32.953125 1.578125 C 32.898438 1.609375 32.859375 1.675781 32.828125 1.78125 C 32.765625 1.9375 32.628906 2.078125 32.421875 2.203125 C 32.210938 2.335938 32.03125 2.421875 31.875 2.453125 C 30.78125 2.640625 30.125 2.847656 29.90625 3.078125 C 29.738281 3.265625 29.59375 3.296875 29.46875 3.171875 C 29.375 3.078125 29.265625 3.046875 29.140625 3.078125 C 28.660156 3.265625 28.304688 3.3125 28.078125 3.21875 C 27.753906 3.050781 27.398438 2.757812 27.015625 2.34375 C 26.640625 1.9375 26.367188 1.570312 26.203125 1.25 L 26.015625 0.765625 L 25.34375 1.25 C 24.738281 1.726562 24.128906 2.117188 23.515625 2.421875 C 22.910156 2.722656 22.320312 2.957031 21.75 3.125 C 21.007812 3.40625 20.226562 3.585938 19.40625 3.671875 C 18.59375 3.753906 17.785156 3.796875 16.984375 3.796875 C 16.441406 3.796875 16.007812 3.785156 15.6875 3.765625 C 15.375 3.753906 15.15625 3.734375 15.03125 3.703125 C 14.707031 3.628906 14.429688 3.59375 14.203125 3.59375 C 13.628906 3.59375 13.003906 3.5 12.328125 3.3125 C 11.660156 3.125 10.988281 2.867188 10.3125 2.546875 C 9.644531 2.222656 9.015625 1.859375 8.421875 1.453125 C 7.828125 1.054688 7.335938 0.664062 6.953125 0.28125 C 6.128906 -0.613281 5.457031 -1.5625 4.9375 -2.5625 C 4.425781 -3.570312 4.019531 -4.613281 3.71875 -5.6875 C 3.414062 -6.757812 3.195312 -7.863281 3.0625 -9 C 2.9375 -10.132812 2.84375 -11.28125 2.78125 -12.4375 C 2.75 -12.882812 2.738281 -13.519531 2.75 -14.34375 C 2.769531 -15.175781 2.8125 -16.21875 2.875 -17.46875 C 3.164062 -24 3.164062 -28.320312 2.875 -30.4375 L 2.78125 -31.15625 L 3.265625 -31.625 C 3.515625 -31.820312 3.769531 -31.992188 4.03125 -32.140625 C 4.289062 -32.285156 4.578125 -32.390625 4.890625 -32.453125 C 5.441406 -32.578125 6.453125 -32.640625 7.921875 -32.640625 C 8.242188 -32.640625 8.59375 -32.625 8.96875 -32.59375 C 9.351562 -32.5625 9.726562 -32.503906 10.09375 -32.421875 C 10.46875 -32.335938 10.820312 -32.21875 11.15625 -32.0625 C 11.488281 -31.90625 11.753906 -31.695312 11.953125 -31.4375 C 12.492188 -30.800781 12.828125 -30.289062 12.953125 -29.90625 C 13.085938 -29.519531 13.085938 -29.054688 12.953125 -28.515625 C 12.890625 -28.253906 12.832031 -27.957031 12.78125 -27.625 C 12.738281 -27.289062 12.703125 -26.882812 12.671875 -26.40625 C 12.640625 -25.507812 12.59375 -24.785156 12.53125 -24.234375 C 12.332031 -22.828125 12.175781 -21.332031 12.0625 -19.75 C 11.957031 -18.164062 11.890625 -16.460938 11.859375 -14.640625 C 11.828125 -11.890625 11.859375 -10.484375 11.953125 -10.421875 C 12.015625 -10.390625 12.015625 -10.316406 11.953125 -10.203125 C 11.890625 -10.085938 11.90625 -9.757812 12 -9.21875 C 12.15625 -8.03125 12.382812 -7.1875 12.6875 -6.6875 C 13 -6.195312 13.472656 -5.789062 14.109375 -5.46875 C 14.847656 -5.113281 15.921875 -4.90625 17.328125 -4.84375 C 18.453125 -4.84375 19.390625 -5.003906 20.140625 -5.328125 C 20.890625 -5.648438 21.507812 -6.101562 22 -6.6875 C 22.5 -7.28125 22.882812 -7.992188 23.15625 -8.828125 C 23.425781 -9.660156 23.644531 -10.585938 23.8125 -11.609375 C 23.9375 -12.253906 24.003906 -12.640625 24.015625 -12.765625 C 24.035156 -12.890625 24.078125 -12.953125 24.140625 -12.953125 C 24.234375 -12.921875 24.28125 -12.859375 24.28125 -12.765625 L 24.390625 -12.140625 C 24.390625 -12.171875 24.40625 -12.203125 24.4375 -12.234375 C 24.59375 -12.617188 24.765625 -14.972656 24.953125 -19.296875 C 25.148438 -23.066406 25.101562 -25.753906 24.8125 -27.359375 C 24.75 -27.710938 24.703125 -27.984375 24.671875 -28.171875 C 24.640625 -28.367188 24.625 -28.484375 24.625 -28.515625 C 24.625 -28.546875 24.582031 -28.613281 24.5 -28.71875 C 24.425781 -28.832031 24.335938 -28.972656 24.234375 -29.140625 C 23.722656 -29.941406 23.550781 -30.46875 23.71875 -30.71875 C 23.78125 -30.84375 23.953125 -31 24.234375 -31.1875 C 24.523438 -31.382812 24.734375 -31.582031 24.859375 -31.78125 C 25.117188 -32.09375 25.394531 -32.25 25.6875 -32.25 C 25.78125 -32.25 25.9375 -32.332031 26.15625 -32.5 C 26.476562 -32.6875 26.832031 -32.8125 27.21875 -32.875 C 27.664062 -32.976562 28.6875 -32.992188 30.28125 -32.921875 Z M 30.28125 -32.921875 "/></g></g></g><g fill="#ffffff" fill-opacity="1"><g transform="translate(399.655601, 328.920828)"><g><path d="M 16.984375 -25.34375 C 16.128906 -25.34375 15.140625 -25.210938 14.015625 -24.953125 C 13.378906 -24.859375 13.007812 -24.78125 12.90625 -24.71875 C 12.8125 -24.65625 12.78125 -24.445312 12.8125 -24.09375 C 12.84375 -23.875 12.847656 -23.59375 12.828125 -23.25 C 12.816406 -22.914062 12.78125 -22.523438 12.71875 -22.078125 C 12.6875 -21.660156 12.660156 -21.15625 12.640625 -20.5625 C 12.628906 -19.976562 12.59375 -19.285156 12.53125 -18.484375 C 12.4375 -16.910156 12.40625 -16.109375 12.4375 -16.078125 C 12.53125 -15.984375 13.085938 -16.082031 14.109375 -16.375 C 14.585938 -16.5 15.113281 -16.65625 15.6875 -16.84375 C 16.269531 -17.039062 16.832031 -17.273438 17.375 -17.546875 C 17.914062 -17.816406 18.414062 -18.128906 18.875 -18.484375 C 19.34375 -18.835938 19.722656 -19.21875 20.015625 -19.625 C 20.429688 -20.269531 20.640625 -21.132812 20.640625 -22.21875 C 20.578125 -23.5 20.269531 -24.335938 19.71875 -24.734375 C 19.175781 -25.140625 18.265625 -25.34375 16.984375 -25.34375 Z M 16.078125 -32.640625 C 16.648438 -32.640625 17.3125 -32.609375 18.0625 -32.546875 C 18.820312 -32.484375 19.566406 -32.382812 20.296875 -32.25 C 21.035156 -32.125 21.753906 -31.960938 22.453125 -31.765625 C 23.160156 -31.578125 23.753906 -31.359375 24.234375 -31.109375 C 25.898438 -30.242188 27.289062 -29.1875 28.40625 -27.9375 C 29.53125 -26.6875 30.238281 -25.40625 30.53125 -24.09375 C 30.882812 -22.59375 30.820312 -21.054688 30.34375 -19.484375 C 30.238281 -19.066406 30.085938 -18.640625 29.890625 -18.203125 C 29.703125 -17.773438 29.492188 -17.363281 29.265625 -16.96875 C 29.046875 -16.570312 28.804688 -16.203125 28.546875 -15.859375 C 28.296875 -15.523438 28.0625 -15.265625 27.84375 -15.078125 C 27.582031 -14.847656 27.363281 -14.644531 27.1875 -14.46875 C 27.007812 -14.289062 26.859375 -14.140625 26.734375 -14.015625 C 26.128906 -13.441406 25.78125 -13.15625 25.6875 -13.15625 C 25.644531 -13.25 25.59375 -13.296875 25.53125 -13.296875 C 25.46875 -13.296875 25.4375 -13.265625 25.4375 -13.203125 C 25.4375 -13.140625 25.296875 -13.007812 25.015625 -12.8125 C 24.597656 -12.65625 24.273438 -12.460938 24.046875 -12.234375 C 23.660156 -11.953125 23.375 -11.78125 23.1875 -11.71875 L 22.890625 -11.5625 C 22.859375 -11.5625 22.828125 -11.546875 22.796875 -11.515625 C 22.796875 -11.390625 23.722656 -10.398438 25.578125 -8.546875 C 26.765625 -7.328125 27.765625 -6.273438 28.578125 -5.390625 C 29.398438 -4.515625 30.003906 -3.773438 30.390625 -3.171875 C 30.484375 -3.003906 30.632812 -2.757812 30.84375 -2.4375 C 31.050781 -2.125 31.25 -1.78125 31.4375 -1.40625 C 31.632812 -1.039062 31.8125 -0.695312 31.96875 -0.375 C 32.125 -0.0625 32.21875 0.191406 32.25 0.390625 C 32.351562 0.804688 32.425781 1.148438 32.46875 1.421875 C 32.519531 1.691406 32.53125 1.9375 32.5 2.15625 C 32.46875 2.382812 32.394531 2.59375 32.28125 2.78125 C 32.164062 2.976562 31.984375 3.1875 31.734375 3.40625 C 31.210938 3.914062 30.582031 4.296875 29.84375 4.546875 C 29.113281 4.804688 28.378906 4.9375 27.640625 4.9375 C 26.785156 4.9375 26.050781 4.710938 25.4375 4.265625 C 25.28125 4.140625 25.144531 4.046875 25.03125 3.984375 C 24.914062 3.921875 24.796875 3.859375 24.671875 3.796875 C 24.410156 3.691406 24.140625 3.5 23.859375 3.21875 C 23.566406 3.019531 23.242188 2.773438 22.890625 2.484375 C 22.546875 2.203125 22.203125 1.894531 21.859375 1.5625 C 21.523438 1.226562 21.210938 0.875 20.921875 0.5 C 20.640625 0.132812 20.414062 -0.207031 20.25 -0.53125 C 19.550781 -1.78125 18.757812 -3.035156 17.875 -4.296875 C 17 -5.554688 16.097656 -6.75 15.171875 -7.875 C 14.753906 -8.382812 14.441406 -8.757812 14.234375 -9 C 14.023438 -9.238281 13.90625 -9.375 13.875 -9.40625 C 13.8125 -9.4375 13.617188 -9.40625 13.296875 -9.3125 C 13.003906 -9.21875 12.734375 -9.171875 12.484375 -9.171875 C 12.253906 -9.171875 12.125 -9.101562 12.09375 -8.96875 C 12 -8.519531 11.90625 -7.160156 11.8125 -4.890625 C 11.707031 -3.234375 11.625 -1.890625 11.5625 -0.859375 C 11.5 0.160156 11.453125 0.847656 11.421875 1.203125 C 11.359375 1.929688 11.242188 2.398438 11.078125 2.609375 C 10.921875 2.816406 10.796875 2.972656 10.703125 3.078125 C 10.222656 3.453125 9.519531 3.707031 8.59375 3.84375 C 8.332031 3.90625 8.085938 3.953125 7.859375 3.984375 C 7.640625 4.015625 7.453125 4.0625 7.296875 4.125 C 7.035156 4.25 6.828125 4.3125 6.671875 4.3125 C 6.609375 4.382812 6.253906 4.257812 5.609375 3.9375 C 5.128906 3.707031 4.710938 3.472656 4.359375 3.234375 C 4.015625 2.992188 3.710938 2.632812 3.453125 2.15625 C 3.328125 1.9375 3.222656 1.726562 3.140625 1.53125 C 3.066406 1.34375 3.007812 1.148438 2.96875 0.953125 C 2.9375 0.765625 2.921875 0.539062 2.921875 0.28125 C 2.921875 0.03125 2.9375 -0.269531 2.96875 -0.625 C 3.007812 -1.039062 3.035156 -1.640625 3.046875 -2.421875 C 3.066406 -3.203125 3.109375 -4.171875 3.171875 -5.328125 C 3.328125 -9.296875 3.441406 -12.421875 3.515625 -14.703125 C 3.597656 -16.992188 3.660156 -18.507812 3.703125 -19.25 C 3.734375 -20.207031 3.753906 -20.96875 3.765625 -21.53125 C 3.785156 -22.09375 3.78125 -22.453125 3.75 -22.609375 C 3.675781 -22.796875 3.5 -23.019531 3.21875 -23.28125 C 2.738281 -23.726562 2.398438 -24.269531 2.203125 -24.90625 C 1.890625 -26.09375 1.941406 -27.132812 2.359375 -28.03125 C 2.484375 -28.289062 2.546875 -28.785156 2.546875 -29.515625 L 2.546875 -30.578125 L 2.921875 -30.765625 C 3.054688 -30.890625 3.320312 -30.992188 3.71875 -31.078125 C 4.113281 -31.160156 4.394531 -31.203125 4.5625 -31.203125 L 4.609375 -31.203125 C 4.640625 -31.171875 4.75 -31.171875 4.9375 -31.203125 C 5.164062 -31.296875 6.351562 -31.535156 8.5 -31.921875 C 10.988281 -32.398438 13.515625 -32.640625 16.078125 -32.640625 Z M 16.078125 -32.640625 "/></g></g></g><g fill="#ffffff" fill-opacity="1"><g transform="translate(432.439546, 328.920828)"><g/></g></g><g fill="#ffffff" fill-opacity="1"><g transform="translate(444.439522, 328.920828)"><g><path d="M 21.21875 -32.734375 C 22.113281 -32.765625 23.425781 -32.71875 25.15625 -32.59375 C 26.019531 -32.53125 26.738281 -32.457031 27.3125 -32.375 C 27.882812 -32.289062 28.300781 -32.21875 28.5625 -32.15625 C 29.195312 -31.96875 29.707031 -31.503906 30.09375 -30.765625 C 30.1875 -30.609375 30.289062 -30.441406 30.40625 -30.265625 C 30.519531 -30.085938 30.65625 -29.882812 30.8125 -29.65625 C 31.394531 -28.957031 31.859375 -28.191406 32.203125 -27.359375 L 32.6875 -26.296875 L 32.546875 -25.78125 C 32.453125 -25.394531 32.351562 -25.128906 32.25 -24.984375 C 32.15625 -24.835938 31.929688 -24.625 31.578125 -24.34375 C 31.203125 -23.957031 30.40625 -23.632812 29.1875 -23.375 C 28.800781 -23.3125 28.5625 -23.34375 28.46875 -23.46875 C 28.363281 -23.59375 28.203125 -23.640625 27.984375 -23.609375 C 27.691406 -23.546875 27.53125 -23.5 27.5 -23.46875 C 27.4375 -23.40625 27.40625 -23.421875 27.40625 -23.515625 C 27.40625 -23.609375 27.359375 -23.65625 27.265625 -23.65625 C 27.234375 -23.65625 27.101562 -23.738281 26.875 -23.90625 C 26.488281 -24.195312 26.085938 -24.375 25.671875 -24.4375 C 25.265625 -24.5 24.5 -24.5 23.375 -24.4375 C 22.414062 -24.4375 21.835938 -24.367188 21.640625 -24.234375 C 21.453125 -24.046875 21.34375 -23.679688 21.3125 -23.140625 C 21.15625 -21.984375 21.035156 -20.492188 20.953125 -18.671875 C 20.867188 -16.847656 20.796875 -14.59375 20.734375 -11.90625 C 20.640625 -7.582031 20.503906 -4.226562 20.328125 -1.84375 C 20.148438 0.539062 19.9375 1.90625 19.6875 2.25 C 19.488281 2.570312 18.957031 2.832031 18.09375 3.03125 C 17.738281 3.09375 17.5625 3.144531 17.5625 3.1875 C 17.5625 3.238281 17.5 3.265625 17.375 3.265625 C 17.25 3.265625 17.160156 3.296875 17.109375 3.359375 C 17.066406 3.421875 17.023438 3.4375 16.984375 3.40625 C 16.890625 3.34375 16.617188 3.535156 16.171875 3.984375 C 15.921875 4.242188 15.726562 4.320312 15.59375 4.21875 C 15.53125 4.15625 15.398438 4.164062 15.203125 4.25 C 15.015625 4.332031 14.796875 4.304688 14.546875 4.171875 C 13.835938 3.785156 13.257812 3.113281 12.8125 2.15625 C 12.6875 1.90625 12.578125 1.691406 12.484375 1.515625 C 12.390625 1.335938 12.273438 1.1875 12.140625 1.0625 C 11.816406 0.675781 11.691406 0.0976562 11.765625 -0.671875 C 11.796875 -0.898438 11.832031 -1.910156 11.875 -3.703125 C 11.925781 -5.492188 11.984375 -8.035156 12.046875 -11.328125 C 12.109375 -14.585938 12.144531 -17.097656 12.15625 -18.859375 C 12.175781 -20.617188 12.171875 -21.707031 12.140625 -22.125 C 12.140625 -22.476562 12.109375 -22.785156 12.046875 -23.046875 C 12.046875 -23.171875 12.03125 -23.28125 12 -23.375 C 12 -23.375 11.25 -23.28125 9.75 -23.09375 C 6.539062 -22.613281 4.488281 -22.40625 3.59375 -22.46875 C 2.925781 -22.5625 2.382812 -22.910156 1.96875 -23.515625 C 1.289062 -24.546875 1.003906 -25.972656 1.109375 -27.796875 C 1.171875 -28.492188 1.289062 -29.125 1.46875 -29.6875 C 1.644531 -30.25 1.957031 -30.800781 2.40625 -31.34375 C 2.65625 -31.664062 2.78125 -31.875 2.78125 -31.96875 C 2.78125 -32.0625 2.835938 -32.1875 2.953125 -32.34375 C 3.066406 -32.507812 3.171875 -32.59375 3.265625 -32.59375 C 3.328125 -32.59375 3.429688 -32.472656 3.578125 -32.234375 C 3.722656 -31.992188 3.828125 -31.757812 3.890625 -31.53125 C 4.015625 -31.3125 4.140625 -31.15625 4.265625 -31.0625 C 4.460938 -30.925781 4.894531 -30.84375 5.5625 -30.8125 C 6.238281 -30.78125 6.863281 -30.796875 7.4375 -30.859375 C 8.363281 -30.992188 9.234375 -31.113281 10.046875 -31.21875 C 10.867188 -31.332031 11.648438 -31.453125 12.390625 -31.578125 C 16.222656 -32.222656 19.164062 -32.609375 21.21875 -32.734375 Z M 21.21875 -32.734375 "/></g></g></g><g fill="#ffffff" fill-opacity="1"><g transform="translate(477.079466, 328.920828)"><g><path d="M 18.34375 -20.0625 C 18.207031 -20.382812 18.109375 -20.546875 18.046875 -20.546875 C 17.785156 -20.546875 17.304688 -19.425781 16.609375 -17.1875 C 15.585938 -13.988281 15.09375 -12.375 15.125 -12.34375 C 15.15625 -12.300781 15.695312 -12.347656 16.75 -12.484375 C 17.164062 -12.546875 17.597656 -12.609375 18.046875 -12.671875 C 18.492188 -12.734375 18.972656 -12.796875 19.484375 -12.859375 C 19.867188 -12.921875 20.15625 -12.96875 20.34375 -13 C 20.539062 -13.039062 20.65625 -13.0625 20.6875 -13.0625 C 20.78125 -13.09375 20.460938 -14.195312 19.734375 -16.375 C 19.023438 -18.382812 18.5625 -19.613281 18.34375 -20.0625 Z M 12.953125 -32.921875 C 13.398438 -33.023438 14.070312 -33.023438 14.96875 -32.921875 C 15.90625 -32.828125 16.691406 -32.738281 17.328125 -32.65625 C 17.960938 -32.582031 18.441406 -32.515625 18.765625 -32.453125 C 19.441406 -32.347656 20.46875 -32.054688 21.84375 -31.578125 C 23.125 -31.265625 23.988281 -30.851562 24.4375 -30.34375 C 24.71875 -30.082031 25.082031 -29.34375 25.53125 -28.125 C 25.757812 -27.519531 26.066406 -26.640625 26.453125 -25.484375 C 26.835938 -24.335938 27.316406 -22.882812 27.890625 -21.125 C 28.335938 -19.78125 28.695312 -18.691406 28.96875 -17.859375 C 29.238281 -17.023438 29.453125 -16.398438 29.609375 -15.984375 C 29.773438 -15.472656 29.925781 -15.023438 30.0625 -14.640625 C 30.207031 -14.253906 30.332031 -13.898438 30.4375 -13.578125 C 30.59375 -13.203125 30.726562 -12.859375 30.84375 -12.546875 C 30.957031 -12.242188 31.046875 -11.984375 31.109375 -11.765625 C 31.523438 -10.734375 31.914062 -9.695312 32.28125 -8.65625 C 32.644531 -7.625 32.988281 -6.53125 33.3125 -5.375 C 33.664062 -4.1875 33.9375 -3.21875 34.125 -2.46875 C 34.320312 -1.71875 34.46875 -0.988281 34.5625 -0.28125 C 34.6875 0.539062 34.769531 1.1875 34.8125 1.65625 C 34.863281 2.125 34.90625 2.484375 34.9375 2.734375 C 34.96875 3.023438 34.984375 3.21875 34.984375 3.3125 C 34.921875 3.3125 34.769531 3.414062 34.53125 3.625 C 34.289062 3.832031 34.09375 3.9375 33.9375 3.9375 C 33.8125 3.9375 33.664062 3.984375 33.5 4.078125 C 33.375 4.171875 32.335938 4.234375 30.390625 4.265625 L 27.40625 4.265625 L 26.96875 4.03125 C 26.71875 3.9375 26.414062 3.710938 26.0625 3.359375 C 25.875 3.171875 25.738281 3.019531 25.65625 2.90625 C 25.570312 2.789062 25.519531 2.707031 25.5 2.65625 C 25.488281 2.613281 25.488281 2.578125 25.5 2.546875 C 25.519531 2.515625 25.5 2.484375 25.4375 2.453125 C 25.34375 2.347656 25.296875 2.265625 25.296875 2.203125 C 25.296875 2.140625 25.101562 1.929688 24.71875 1.578125 C 24.363281 1.234375 24.125 0.960938 24 0.765625 C 23.96875 0.703125 23.9375 0.625 23.90625 0.53125 C 23.875 0.4375 23.8125 0.304688 23.71875 0.140625 C 23.457031 -0.210938 23.488281 -0.335938 23.8125 -0.234375 C 23.9375 -0.234375 24.015625 -0.316406 24.046875 -0.484375 C 24.078125 -0.703125 24.140625 -0.75 24.234375 -0.625 C 24.304688 -0.5625 24.34375 -0.59375 24.34375 -0.71875 L 24.34375 -1.34375 C 24.269531 -1.976562 24.144531 -2.625 23.96875 -3.28125 C 23.800781 -3.9375 23.539062 -4.78125 23.1875 -5.8125 L 22.9375 -6.484375 L 22.265625 -6.4375 C 21.660156 -6.375 20.894531 -6.253906 19.96875 -6.078125 C 19.039062 -5.898438 17.9375 -5.648438 16.65625 -5.328125 C 16.394531 -5.265625 16.160156 -5.207031 15.953125 -5.15625 C 15.742188 -5.113281 15.5625 -5.054688 15.40625 -4.984375 C 15.28125 -4.953125 15.0625 -4.90625 14.75 -4.84375 C 14.445312 -4.78125 14.039062 -4.671875 13.53125 -4.515625 C 12.570312 -4.253906 12.046875 -4.078125 11.953125 -3.984375 C 11.828125 -3.859375 11.632812 -3.457031 11.375 -2.78125 C 11.019531 -1.882812 10.640625 -1.066406 10.234375 -0.328125 C 9.835938 0.398438 9.382812 1.132812 8.875 1.875 C 8.59375 2.257812 8.453125 2.5 8.453125 2.59375 C 8.453125 2.625 8.304688 2.785156 8.015625 3.078125 L 7.578125 3.546875 L 6.71875 3.5 C 6.207031 3.46875 5.875 3.40625 5.71875 3.3125 C 5.644531 3.28125 5.398438 3.359375 4.984375 3.546875 C 4.378906 3.835938 4.046875 3.890625 3.984375 3.703125 C 3.953125 3.628906 3.863281 3.546875 3.71875 3.453125 C 3.570312 3.359375 3.34375 3.28125 3.03125 3.21875 C 2.925781 3.1875 2.875 3.101562 2.875 2.96875 C 2.875 2.84375 2.828125 2.78125 2.734375 2.78125 C 2.609375 2.78125 2.398438 2.601562 2.109375 2.25 C 1.828125 1.90625 1.664062 1.632812 1.625 1.4375 C 1.625 1.21875 1.5625 1.039062 1.4375 0.90625 C 1.21875 0.65625 1.15625 -0.1875 1.25 -1.625 C 1.3125 -2.144531 1.34375 -2.40625 1.34375 -2.40625 C 1.40625 -2.59375 1.453125 -2.765625 1.484375 -2.921875 C 1.617188 -3.273438 1.78125 -3.597656 1.96875 -3.890625 C 2.1875 -4.242188 2.320312 -4.503906 2.375 -4.671875 C 2.425781 -4.847656 2.53125 -5.050781 2.6875 -5.28125 C 2.84375 -5.46875 3.015625 -5.738281 3.203125 -6.09375 C 3.398438 -6.445312 3.628906 -6.910156 3.890625 -7.484375 C 4.046875 -7.929688 4.171875 -8.273438 4.265625 -8.515625 C 4.367188 -8.753906 4.4375 -8.925781 4.46875 -9.03125 C 4.46875 -9.15625 4.515625 -9.328125 4.609375 -9.546875 C 4.960938 -10.347656 5.488281 -11.773438 6.1875 -13.828125 C 6.414062 -14.460938 6.597656 -14.992188 6.734375 -15.421875 C 6.878906 -15.859375 7.003906 -16.207031 7.109375 -16.46875 C 7.585938 -17.84375 8.066406 -19.253906 8.546875 -20.703125 C 9.023438 -22.160156 9.488281 -23.675781 9.9375 -25.25 C 10.894531 -28.414062 11.296875 -30.300781 11.140625 -30.90625 C 11.109375 -31.070312 11.039062 -31.203125 10.9375 -31.296875 C 10.8125 -31.390625 10.878906 -31.535156 11.140625 -31.734375 C 11.328125 -31.859375 11.390625 -31.957031 11.328125 -32.03125 C 11.265625 -32.113281 11.359375 -32.238281 11.609375 -32.40625 C 12.097656 -32.6875 12.546875 -32.859375 12.953125 -32.921875 Z M 12.953125 -32.921875 "/></g></g></g><g fill="#ffffff" fill-opacity="1"><g transform="translate(511.975418, 328.920828)"><g><path d="M 14.59375 -32.828125 C 15.457031 -32.828125 16.328125 -32.765625 17.203125 -32.640625 C 18.085938 -32.515625 18.945312 -32.367188 19.78125 -32.203125 C 20.226562 -32.109375 20.707031 -32.019531 21.21875 -31.9375 C 21.726562 -31.863281 22.015625 -31.828125 22.078125 -31.828125 C 22.554688 -31.734375 22.921875 -31.539062 23.171875 -31.25 C 23.429688 -30.957031 23.753906 -30.394531 24.140625 -29.5625 L 24.71875 -28.375 L 24.71875 -27.21875 C 24.71875 -26.476562 24.625 -25.929688 24.4375 -25.578125 C 24.300781 -25.359375 24.117188 -25.113281 23.890625 -24.84375 C 23.671875 -24.570312 23.425781 -24.316406 23.15625 -24.078125 C 22.882812 -23.835938 22.601562 -23.628906 22.3125 -23.453125 C 22.03125 -23.273438 21.742188 -23.1875 21.453125 -23.1875 C 21.265625 -23.1875 21.035156 -23.234375 20.765625 -23.328125 C 20.492188 -23.421875 20.097656 -23.582031 19.578125 -23.8125 C 18.335938 -24.476562 17.570312 -24.8125 17.28125 -24.8125 C 17.125 -24.8125 16.976562 -24.878906 16.84375 -25.015625 C 16.65625 -25.171875 16.320312 -25.28125 15.84375 -25.34375 C 15.363281 -25.40625 14.960938 -25.40625 14.640625 -25.34375 C 13.804688 -25.1875 13.003906 -24.859375 12.234375 -24.359375 C 11.472656 -23.859375 10.929688 -23.210938 10.609375 -22.421875 C 10.191406 -21.359375 10.207031 -20.492188 10.65625 -19.828125 C 10.8125 -19.566406 11.1875 -19.304688 11.78125 -19.046875 C 12.375 -18.796875 13.019531 -18.550781 13.71875 -18.3125 C 14.425781 -18.070312 15.125 -17.851562 15.8125 -17.65625 C 16.5 -17.46875 17.035156 -17.328125 17.421875 -17.234375 C 18.378906 -16.941406 19.332031 -16.5625 20.28125 -16.09375 C 21.226562 -15.632812 22.097656 -15.078125 22.890625 -14.421875 C 23.691406 -13.765625 24.394531 -13.023438 25 -12.203125 C 25.613281 -11.390625 26.082031 -10.472656 26.40625 -9.453125 C 26.882812 -7.828125 26.929688 -6.195312 26.546875 -4.5625 C 26.160156 -2.925781 25.34375 -1.40625 24.09375 0 C 21.5625 2.78125 17.847656 4.171875 12.953125 4.171875 C 12.191406 4.171875 11.289062 4.109375 10.25 3.984375 C 9.207031 3.859375 8.171875 3.640625 7.140625 3.328125 C 6.117188 3.023438 5.1875 2.625 4.34375 2.125 C 3.5 1.632812 2.867188 1.003906 2.453125 0.234375 C 2.347656 0.046875 2.269531 -0.101562 2.21875 -0.21875 C 2.175781 -0.332031 2.140625 -0.453125 2.109375 -0.578125 C 2.078125 -0.703125 2.050781 -0.84375 2.03125 -1 C 2.019531 -1.164062 2.015625 -1.410156 2.015625 -1.734375 C 2.015625 -2.554688 2.046875 -3.003906 2.109375 -3.078125 C 2.171875 -3.140625 2.203125 -3.234375 2.203125 -3.359375 C 2.203125 -3.453125 2.171875 -3.53125 2.109375 -3.59375 C 2.046875 -3.664062 2.03125 -3.84375 2.0625 -4.125 C 2.09375 -4.414062 2.140625 -4.609375 2.203125 -4.703125 C 2.234375 -4.828125 2.234375 -4.941406 2.203125 -5.046875 C 2.140625 -5.109375 2.109375 -5.332031 2.109375 -5.71875 L 2.15625 -6.234375 L 2.203125 -6.140625 C 2.265625 -6.015625 2.332031 -6.0625 2.40625 -6.28125 C 2.40625 -6.351562 2.421875 -6.40625 2.453125 -6.4375 C 2.515625 -6.71875 2.5625 -6.957031 2.59375 -7.15625 C 2.59375 -7.375 2.625 -7.484375 2.6875 -7.484375 C 2.75 -7.484375 2.78125 -7.4375 2.78125 -7.34375 C 2.78125 -7.25 2.910156 -6.960938 3.171875 -6.484375 C 3.523438 -5.773438 4.023438 -5.132812 4.671875 -4.5625 C 5.328125 -3.988281 6.070312 -3.570312 6.90625 -3.3125 C 7.351562 -3.15625 7.894531 -3.023438 8.53125 -2.921875 C 9.175781 -2.828125 9.820312 -2.78125 10.46875 -2.78125 C 11.039062 -2.78125 11.644531 -2.828125 12.28125 -2.921875 C 12.925781 -3.023438 13.550781 -3.179688 14.15625 -3.390625 C 14.769531 -3.597656 15.316406 -3.890625 15.796875 -4.265625 C 16.273438 -4.648438 16.625 -5.132812 16.84375 -5.71875 C 16.976562 -6.09375 17.050781 -6.550781 17.0625 -7.09375 C 17.082031 -7.644531 17.007812 -8.015625 16.84375 -8.203125 C 16.625 -8.460938 16.03125 -8.816406 15.0625 -9.265625 C 14.101562 -9.710938 12.726562 -10.253906 10.9375 -10.890625 C 9.757812 -11.304688 8.773438 -11.695312 7.984375 -12.0625 C 7.203125 -12.4375 6.585938 -12.785156 6.140625 -13.109375 C 4.703125 -14.128906 3.585938 -15.316406 2.796875 -16.671875 C 2.015625 -18.035156 1.625 -19.613281 1.625 -21.40625 C 1.625 -22.363281 1.804688 -23.367188 2.171875 -24.421875 C 2.546875 -25.484375 3.050781 -26.476562 3.6875 -27.40625 C 4.332031 -28.332031 5.070312 -29.164062 5.90625 -29.90625 C 6.738281 -30.644531 7.601562 -31.203125 8.5 -31.578125 C 9.519531 -31.992188 10.515625 -32.304688 11.484375 -32.515625 C 12.460938 -32.722656 13.5 -32.828125 14.59375 -32.828125 Z M 14.59375 -32.828125 "/></g></g></g><g fill="#ffffff" fill-opacity="1"><g transform="translate(539.287382, 328.920828)"><g><path d="M 4.984375 -32.5 C 5.429688 -32.59375 6.457031 -32.625 8.0625 -32.59375 C 9.695312 -32.53125 10.515625 -32.46875 10.515625 -32.40625 C 10.515625 -32.332031 10.65625 -32.265625 10.9375 -32.203125 C 11.257812 -32.078125 11.554688 -31.925781 11.828125 -31.75 C 12.097656 -31.570312 12.316406 -31.359375 12.484375 -31.109375 C 12.929688 -30.398438 13.085938 -29.613281 12.953125 -28.75 C 12.921875 -28.5625 12.90625 -28.160156 12.90625 -27.546875 C 12.90625 -26.941406 12.890625 -26.160156 12.859375 -25.203125 C 12.859375 -24.171875 12.847656 -23.285156 12.828125 -22.546875 C 12.816406 -21.816406 12.796875 -21.210938 12.765625 -20.734375 C 12.703125 -19.773438 12.6875 -19.28125 12.71875 -19.25 C 12.75 -19.21875 12.957031 -19.394531 13.34375 -19.78125 C 13.726562 -20.195312 14.207031 -20.695312 14.78125 -21.28125 C 15.351562 -21.875 15.863281 -22.441406 16.3125 -22.984375 C 19.90625 -27.054688 21.703125 -29.796875 21.703125 -31.203125 C 21.703125 -31.359375 21.734375 -31.484375 21.796875 -31.578125 C 21.859375 -31.679688 22.066406 -31.78125 22.421875 -31.875 C 22.640625 -31.96875 22.929688 -32.0625 23.296875 -32.15625 C 23.671875 -32.25 24.054688 -32.320312 24.453125 -32.375 C 24.859375 -32.425781 25.257812 -32.46875 25.65625 -32.5 C 26.050781 -32.53125 26.394531 -32.546875 26.6875 -32.546875 C 27.164062 -32.546875 27.707031 -32.515625 28.3125 -32.453125 C 28.925781 -32.390625 29.519531 -32.269531 30.09375 -32.09375 C 30.664062 -31.914062 31.175781 -31.664062 31.625 -31.34375 C 32.070312 -31.019531 32.394531 -30.601562 32.59375 -30.09375 C 32.71875 -29.707031 32.75 -29.378906 32.6875 -29.109375 C 32.625 -28.835938 32.398438 -28.507812 32.015625 -28.125 C 31.890625 -27.96875 31.773438 -27.800781 31.671875 -27.625 C 31.578125 -27.445312 31.46875 -27.25 31.34375 -27.03125 C 31.050781 -26.445312 30.664062 -25.816406 30.1875 -25.140625 C 29.707031 -24.472656 29.1875 -23.800781 28.625 -23.125 C 28.070312 -22.457031 27.5 -21.828125 26.90625 -21.234375 C 26.3125 -20.648438 25.773438 -20.148438 25.296875 -19.734375 C 25.035156 -19.472656 24.785156 -19.257812 24.546875 -19.09375 C 24.304688 -18.9375 24.109375 -18.78125 23.953125 -18.625 C 23.796875 -18.46875 23.648438 -18.316406 23.515625 -18.171875 C 23.390625 -18.023438 23.28125 -17.921875 23.1875 -17.859375 C 23.09375 -17.796875 22.898438 -17.644531 22.609375 -17.40625 C 22.316406 -17.164062 21.945312 -16.835938 21.5 -16.421875 C 21.375 -16.285156 21.242188 -16.171875 21.109375 -16.078125 C 20.984375 -15.984375 20.84375 -15.875 20.6875 -15.75 C 20.59375 -15.675781 20.472656 -15.566406 20.328125 -15.421875 C 20.179688 -15.285156 20 -15.117188 19.78125 -14.921875 L 19.203125 -14.40625 L 20.015625 -13.578125 C 20.304688 -13.296875 20.609375 -13.007812 20.921875 -12.71875 C 21.242188 -12.425781 21.597656 -12.125 21.984375 -11.8125 C 22.972656 -10.945312 23.957031 -10.066406 24.9375 -9.171875 C 25.914062 -8.273438 26.882812 -7.363281 27.84375 -6.4375 C 28.738281 -5.539062 29.445312 -4.765625 29.96875 -4.109375 C 30.5 -3.453125 31.003906 -2.660156 31.484375 -1.734375 C 31.710938 -1.378906 31.875 -1.097656 31.96875 -0.890625 C 32.0625 -0.679688 32.140625 -0.53125 32.203125 -0.4375 C 32.265625 -0.238281 32.316406 0.0507812 32.359375 0.4375 C 32.421875 1.195312 32.289062 1.707031 31.96875 1.96875 C 31.78125 2.09375 31.648438 2.238281 31.578125 2.40625 C 31.484375 2.59375 31.273438 2.8125 30.953125 3.0625 C 30.640625 3.320312 30.320312 3.550781 30 3.75 C 29.675781 3.90625 29.203125 4.046875 28.578125 4.171875 C 27.953125 4.304688 27.453125 4.375 27.078125 4.375 C 26.753906 4.375 26.5625 4.335938 26.5 4.265625 C 26.363281 4.203125 26.164062 4.15625 25.90625 4.125 C 25.65625 4.09375 25.390625 3.96875 25.109375 3.75 C 25.046875 3.675781 24.910156 3.566406 24.703125 3.421875 C 24.492188 3.285156 24.351562 3.203125 24.28125 3.171875 C 24.125 3.035156 23.988281 2.921875 23.875 2.828125 C 23.769531 2.734375 23.679688 2.65625 23.609375 2.59375 C 23.421875 2.394531 23.085938 2.109375 22.609375 1.734375 C 21.617188 0.929688 20.738281 0 19.96875 -1.0625 C 19.425781 -1.789062 18.832031 -2.523438 18.1875 -3.265625 C 17.550781 -4.003906 16.6875 -4.976562 15.59375 -6.1875 C 13.613281 -8.53125 12.507812 -9.523438 12.28125 -9.171875 C 12.21875 -9.078125 12.171875 -7.765625 12.140625 -5.234375 C 12.109375 -3.628906 12.078125 -2.351562 12.046875 -1.40625 C 12.015625 -0.46875 11.984375 0.175781 11.953125 0.53125 C 11.921875 1.195312 11.820312 1.675781 11.65625 1.96875 C 11.59375 2.125 11.460938 2.296875 11.265625 2.484375 C 11.078125 2.679688 10.90625 2.796875 10.75 2.828125 C 10.6875 2.859375 10.597656 2.90625 10.484375 2.96875 C 10.367188 3.039062 10.234375 3.125 10.078125 3.21875 C 9.753906 3.375 9.515625 3.46875 9.359375 3.5 C 9.171875 3.5 8.976562 3.597656 8.78125 3.796875 C 8.5 3.953125 8.320312 4.046875 8.25 4.078125 C 8.0625 4.109375 7.847656 4.144531 7.609375 4.1875 C 7.367188 4.238281 7.117188 4.265625 6.859375 4.265625 C 6.609375 4.265625 6.328125 4.222656 6.015625 4.140625 C 5.710938 4.066406 5.40625 3.898438 5.09375 3.640625 C 4.894531 3.453125 4.632812 3.3125 4.3125 3.21875 C 4.0625 3.125 3.859375 3.023438 3.703125 2.921875 C 3.410156 2.765625 3.164062 2.253906 2.96875 1.390625 C 2.9375 1.203125 2.910156 0.945312 2.890625 0.625 C 2.878906 0.300781 2.875 -0.0820312 2.875 -0.53125 C 2.875 -1.394531 2.972656 -5.347656 3.171875 -12.390625 C 3.203125 -13.828125 3.21875 -15.335938 3.21875 -16.921875 C 3.21875 -18.503906 3.1875 -20.175781 3.125 -21.9375 C 3.0625 -23.695312 2.992188 -25.21875 2.921875 -26.5 C 2.859375 -27.78125 2.765625 -28.832031 2.640625 -29.65625 C 2.578125 -30.425781 2.609375 -30.894531 2.734375 -31.0625 C 2.828125 -31.21875 2.859375 -31.316406 2.828125 -31.359375 C 2.796875 -31.410156 2.910156 -31.519531 3.171875 -31.6875 C 3.421875 -31.84375 3.722656 -32 4.078125 -32.15625 C 4.429688 -32.320312 4.734375 -32.4375 4.984375 -32.5 Z M 4.984375 -32.5 "/></g></g></g><g fill="#ffffff" fill-opacity="1"><g transform="translate(572.071316, 328.920828)"><g/></g></g><g fill="#ffffff" fill-opacity="1"><g transform="translate(584.071292, 328.920828)"><g><path d="M 32.5 -33.265625 C 32.851562 -33.328125 33.242188 -33.359375 33.671875 -33.359375 C 34.097656 -33.359375 34.585938 -33.328125 35.140625 -33.265625 C 35.835938 -33.203125 36.4375 -33.085938 36.9375 -32.921875 C 37.4375 -32.765625 37.84375 -32.59375 38.15625 -32.40625 C 38.445312 -32.238281 38.703125 -32.140625 38.921875 -32.109375 C 39.335938 -32.015625 39.660156 -31.613281 39.890625 -30.90625 C 40.078125 -30.425781 40.171875 -25.097656 40.171875 -14.921875 C 40.171875 -10.765625 40.125 -7.25 40.03125 -4.375 C 39.9375 -1.425781 39.742188 0.539062 39.453125 1.53125 C 39.128906 2.625 38.796875 3.171875 38.453125 3.171875 C 38.316406 3.171875 38.203125 3.234375 38.109375 3.359375 C 38.046875 3.484375 37.023438 3.546875 35.046875 3.546875 C 34.015625 3.546875 33.226562 3.53125 32.6875 3.5 C 32.144531 3.46875 31.828125 3.4375 31.734375 3.40625 C 31.503906 3.34375 31.265625 3.179688 31.015625 2.921875 C 30.878906 2.796875 30.785156 2.6875 30.734375 2.59375 C 30.691406 2.5 30.65625 2.394531 30.625 2.28125 C 30.59375 2.164062 30.550781 2.035156 30.5 1.890625 C 30.457031 1.753906 30.367188 1.554688 30.234375 1.296875 C 30.078125 0.972656 29.914062 0.648438 29.75 0.328125 C 29.59375 0.015625 29.4375 -0.332031 29.28125 -0.71875 C 29.125 -1.132812 28.960938 -1.484375 28.796875 -1.765625 C 28.640625 -2.054688 28.5 -2.300781 28.375 -2.5 C 28.144531 -2.882812 28.03125 -3.078125 28.03125 -3.078125 C 28.09375 -3.078125 28.15625 -3.0625 28.21875 -3.03125 C 28.320312 -2.988281 28.375 -2.988281 28.375 -3.03125 C 28.375 -3.15625 28.332031 -3.335938 28.25 -3.578125 C 28.164062 -3.816406 28.109375 -3.953125 28.078125 -3.984375 L 28.84375 -3.890625 L 28.890625 -3.890625 C 28.953125 -3.859375 29.054688 -3.832031 29.203125 -3.8125 C 29.347656 -3.800781 29.535156 -3.765625 29.765625 -3.703125 C 29.921875 -3.660156 30.070312 -3.625 30.21875 -3.59375 C 30.363281 -3.5625 30.46875 -3.53125 30.53125 -3.5 C 30.75 -3.40625 30.875 -3.535156 30.90625 -3.890625 C 30.9375 -4.046875 30.960938 -4.320312 30.984375 -4.71875 C 31.003906 -5.125 31.03125 -5.695312 31.0625 -6.4375 C 31.0625 -6.851562 31.066406 -7.367188 31.078125 -7.984375 C 31.097656 -8.609375 31.113281 -9.25 31.125 -9.90625 C 31.144531 -10.5625 31.160156 -11.203125 31.171875 -11.828125 C 31.191406 -12.453125 31.203125 -12.972656 31.203125 -13.390625 C 31.234375 -17.515625 31.234375 -19.867188 31.203125 -20.453125 C 31.171875 -21.117188 31.117188 -21.453125 31.046875 -21.453125 C 30.984375 -21.453125 30.953125 -21.40625 30.953125 -21.3125 C 30.953125 -21.28125 30.910156 -21.160156 30.828125 -20.953125 C 30.753906 -20.742188 30.609375 -20.414062 30.390625 -19.96875 C 29.972656 -19.164062 29.570312 -18.40625 29.1875 -17.6875 C 28.800781 -16.96875 28.445312 -16.238281 28.125 -15.5 C 28 -15.25 27.863281 -14.96875 27.71875 -14.65625 C 27.570312 -14.351562 27.375 -13.976562 27.125 -13.53125 C 27.09375 -13.4375 27.007812 -13.285156 26.875 -13.078125 C 26.75 -12.867188 26.628906 -12.644531 26.515625 -12.40625 C 26.410156 -12.164062 26.300781 -11.929688 26.1875 -11.703125 C 26.070312 -11.484375 25.984375 -11.328125 25.921875 -11.234375 C 25.441406 -10.210938 24.921875 -9.476562 24.359375 -9.03125 C 23.796875 -8.582031 23.082031 -8.257812 22.21875 -8.0625 C 21.320312 -7.875 20.734375 -7.8125 20.453125 -7.875 C 20.035156 -7.96875 19.546875 -8.269531 18.984375 -8.78125 C 18.421875 -9.289062 17.867188 -9.875 17.328125 -10.53125 C 16.785156 -11.1875 16.3125 -11.859375 15.90625 -12.546875 C 15.507812 -13.234375 15.265625 -13.816406 15.171875 -14.296875 C 15.140625 -14.523438 14.992188 -15 14.734375 -15.71875 C 14.484375 -16.4375 14.203125 -17.195312 13.890625 -18 C 13.585938 -18.800781 13.300781 -19.515625 13.03125 -20.140625 C 12.757812 -20.765625 12.5625 -21.09375 12.4375 -21.125 C 12.300781 -21.125 12.1875 -21.070312 12.09375 -20.96875 C 11.96875 -20.84375 11.875 -20.347656 11.8125 -19.484375 C 11.78125 -18.785156 11.726562 -18.273438 11.65625 -17.953125 C 11.625 -17.828125 11.597656 -17.695312 11.578125 -17.5625 C 11.566406 -17.4375 11.5625 -17.28125 11.5625 -17.09375 C 11.5625 -16.894531 11.550781 -16.695312 11.53125 -16.5 C 11.519531 -16.3125 11.5 -16.09375 11.46875 -15.84375 C 11.4375 -15.457031 11.390625 -15.023438 11.328125 -14.546875 C 11.328125 -14.421875 11.3125 -14.082031 11.28125 -13.53125 C 11.25 -12.988281 11.21875 -12.554688 11.1875 -12.234375 C 11.15625 -11.953125 11.128906 -11.578125 11.109375 -11.109375 C 11.097656 -10.648438 11.09375 -10.15625 11.09375 -9.625 C 11.09375 -9.09375 11.097656 -8.578125 11.109375 -8.078125 C 11.128906 -7.585938 11.140625 -7.179688 11.140625 -6.859375 C 11.171875 -6.128906 11.191406 -5.519531 11.203125 -5.03125 C 11.222656 -4.550781 11.21875 -4.1875 11.1875 -3.9375 C 11.125 -2.8125 11.171875 -1.289062 11.328125 0.625 C 11.390625 1.394531 11.101562 2.113281 10.46875 2.78125 C 9.789062 3.488281 8.84375 3.921875 7.625 4.078125 C 7.375 4.109375 7.191406 4.140625 7.078125 4.171875 C 6.960938 4.203125 6.875 4.234375 6.8125 4.265625 C 6.75 4.265625 6.515625 4.175781 6.109375 4 C 5.710938 3.832031 5.289062 3.488281 4.84375 2.96875 C 4.625 2.71875 4.425781 2.503906 4.25 2.328125 C 4.070312 2.148438 3.90625 1.984375 3.75 1.828125 C 3.519531 1.628906 3.328125 1.359375 3.171875 1.015625 C 3.035156 0.722656 2.921875 0.378906 2.828125 -0.015625 C 2.734375 -0.421875 2.703125 -0.640625 2.734375 -0.671875 C 2.765625 -0.703125 2.8125 -2.609375 2.875 -6.390625 C 2.90625 -10.160156 2.957031 -12.765625 3.03125 -14.203125 C 3.21875 -17.890625 3.332031 -20.882812 3.375 -23.1875 C 3.425781 -25.488281 3.421875 -27.101562 3.359375 -28.03125 C 3.203125 -29.882812 2.976562 -31.035156 2.6875 -31.484375 C 2.59375 -31.710938 2.5625 -31.84375 2.59375 -31.875 C 2.625 -31.90625 3.023438 -31.984375 3.796875 -32.109375 C 4.691406 -32.273438 5.332031 -32.375 5.71875 -32.40625 C 6.289062 -32.46875 6.59375 -32.484375 6.625 -32.453125 C 6.6875 -32.390625 6.972656 -32.359375 7.484375 -32.359375 C 8.921875 -32.316406 9.945312 -32.054688 10.5625 -31.578125 C 10.882812 -31.359375 11.25 -31.203125 11.65625 -31.109375 C 12.625 -30.878906 13.425781 -30.660156 14.0625 -30.453125 C 14.707031 -30.242188 15.257812 -29.960938 15.71875 -29.609375 C 16.1875 -29.265625 16.59375 -28.800781 16.9375 -28.21875 C 17.289062 -27.644531 17.675781 -26.878906 18.09375 -25.921875 C 18.257812 -25.503906 18.394531 -25.148438 18.5 -24.859375 C 18.613281 -24.578125 18.71875 -24.335938 18.8125 -24.140625 C 19.707031 -22.191406 20.460938 -20.289062 21.078125 -18.4375 L 21.265625 -18 L 21.40625 -18.234375 C 21.601562 -18.523438 21.859375 -19 22.171875 -19.65625 C 22.492188 -20.3125 22.847656 -21.054688 23.234375 -21.890625 C 23.617188 -22.722656 24.019531 -23.59375 24.4375 -24.5 C 24.851562 -25.414062 25.226562 -26.28125 25.5625 -27.09375 C 25.894531 -27.90625 26.171875 -28.625 26.390625 -29.25 C 26.617188 -29.875 26.734375 -30.316406 26.734375 -30.578125 C 26.765625 -30.765625 26.828125 -30.898438 26.921875 -30.984375 C 27.023438 -31.066406 27.203125 -31.203125 27.453125 -31.390625 C 27.648438 -31.515625 27.9375 -31.671875 28.3125 -31.859375 C 28.695312 -32.054688 29.085938 -32.242188 29.484375 -32.421875 C 29.890625 -32.597656 30.285156 -32.75 30.671875 -32.875 C 31.054688 -33.007812 31.359375 -33.078125 31.578125 -33.078125 C 31.648438 -33.078125 31.765625 -33.09375 31.921875 -33.125 C 32.078125 -33.15625 32.269531 -33.203125 32.5 -33.265625 Z M 32.5 -33.265625 "/></g></g></g><g fill="#ffffff" fill-opacity="1"><g transform="translate(626.599205, 328.920828)"><g><path d="M 18.34375 -20.0625 C 18.207031 -20.382812 18.109375 -20.546875 18.046875 -20.546875 C 17.785156 -20.546875 17.304688 -19.425781 16.609375 -17.1875 C 15.585938 -13.988281 15.09375 -12.375 15.125 -12.34375 C 15.15625 -12.300781 15.695312 -12.347656 16.75 -12.484375 C 17.164062 -12.546875 17.597656 -12.609375 18.046875 -12.671875 C 18.492188 -12.734375 18.972656 -12.796875 19.484375 -12.859375 C 19.867188 -12.921875 20.15625 -12.96875 20.34375 -13 C 20.539062 -13.039062 20.65625 -13.0625 20.6875 -13.0625 C 20.78125 -13.09375 20.460938 -14.195312 19.734375 -16.375 C 19.023438 -18.382812 18.5625 -19.613281 18.34375 -20.0625 Z M 12.953125 -32.921875 C 13.398438 -33.023438 14.070312 -33.023438 14.96875 -32.921875 C 15.90625 -32.828125 16.691406 -32.738281 17.328125 -32.65625 C 17.960938 -32.582031 18.441406 -32.515625 18.765625 -32.453125 C 19.441406 -32.347656 20.46875 -32.054688 21.84375 -31.578125 C 23.125 -31.265625 23.988281 -30.851562 24.4375 -30.34375 C 24.71875 -30.082031 25.082031 -29.34375 25.53125 -28.125 C 25.757812 -27.519531 26.066406 -26.640625 26.453125 -25.484375 C 26.835938 -24.335938 27.316406 -22.882812 27.890625 -21.125 C 28.335938 -19.78125 28.695312 -18.691406 28.96875 -17.859375 C 29.238281 -17.023438 29.453125 -16.398438 29.609375 -15.984375 C 29.773438 -15.472656 29.925781 -15.023438 30.0625 -14.640625 C 30.207031 -14.253906 30.332031 -13.898438 30.4375 -13.578125 C 30.59375 -13.203125 30.726562 -12.859375 30.84375 -12.546875 C 30.957031 -12.242188 31.046875 -11.984375 31.109375 -11.765625 C 31.523438 -10.734375 31.914062 -9.695312 32.28125 -8.65625 C 32.644531 -7.625 32.988281 -6.53125 33.3125 -5.375 C 33.664062 -4.1875 33.9375 -3.21875 34.125 -2.46875 C 34.320312 -1.71875 34.46875 -0.988281 34.5625 -0.28125 C 34.6875 0.539062 34.769531 1.1875 34.8125 1.65625 C 34.863281 2.125 34.90625 2.484375 34.9375 2.734375 C 34.96875 3.023438 34.984375 3.21875 34.984375 3.3125 C 34.921875 3.3125 34.769531 3.414062 34.53125 3.625 C 34.289062 3.832031 34.09375 3.9375 33.9375 3.9375 C 33.8125 3.9375 33.664062 3.984375 33.5 4.078125 C 33.375 4.171875 32.335938 4.234375 30.390625 4.265625 L 27.40625 4.265625 L 26.96875 4.03125 C 26.71875 3.9375 26.414062 3.710938 26.0625 3.359375 C 25.875 3.171875 25.738281 3.019531 25.65625 2.90625 C 25.570312 2.789062 25.519531 2.707031 25.5 2.65625 C 25.488281 2.613281 25.488281 2.578125 25.5 2.546875 C 25.519531 2.515625 25.5 2.484375 25.4375 2.453125 C 25.34375 2.347656 25.296875 2.265625 25.296875 2.203125 C 25.296875 2.140625 25.101562 1.929688 24.71875 1.578125 C 24.363281 1.234375 24.125 0.960938 24 0.765625 C 23.96875 0.703125 23.9375 0.625 23.90625 0.53125 C 23.875 0.4375 23.8125 0.304688 23.71875 0.140625 C 23.457031 -0.210938 23.488281 -0.335938 23.8125 -0.234375 C 23.9375 -0.234375 24.015625 -0.316406 24.046875 -0.484375 C 24.078125 -0.703125 24.140625 -0.75 24.234375 -0.625 C 24.304688 -0.5625 24.34375 -0.59375 24.34375 -0.71875 L 24.34375 -1.34375 C 24.269531 -1.976562 24.144531 -2.625 23.96875 -3.28125 C 23.800781 -3.9375 23.539062 -4.78125 23.1875 -5.8125 L 22.9375 -6.484375 L 22.265625 -6.4375 C 21.660156 -6.375 20.894531 -6.253906 19.96875 -6.078125 C 19.039062 -5.898438 17.9375 -5.648438 16.65625 -5.328125 C 16.394531 -5.265625 16.160156 -5.207031 15.953125 -5.15625 C 15.742188 -5.113281 15.5625 -5.054688 15.40625 -4.984375 C 15.28125 -4.953125 15.0625 -4.90625 14.75 -4.84375 C 14.445312 -4.78125 14.039062 -4.671875 13.53125 -4.515625 C 12.570312 -4.253906 12.046875 -4.078125 11.953125 -3.984375 C 11.828125 -3.859375 11.632812 -3.457031 11.375 -2.78125 C 11.019531 -1.882812 10.640625 -1.066406 10.234375 -0.328125 C 9.835938 0.398438 9.382812 1.132812 8.875 1.875 C 8.59375 2.257812 8.453125 2.5 8.453125 2.59375 C 8.453125 2.625 8.304688 2.785156 8.015625 3.078125 L 7.578125 3.546875 L 6.71875 3.5 C 6.207031 3.46875 5.875 3.40625 5.71875 3.3125 C 5.644531 3.28125 5.398438 3.359375 4.984375 3.546875 C 4.378906 3.835938 4.046875 3.890625 3.984375 3.703125 C 3.953125 3.628906 3.863281 3.546875 3.71875 3.453125 C 3.570312 3.359375 3.34375 3.28125 3.03125 3.21875 C 2.925781 3.1875 2.875 3.101562 2.875 2.96875 C 2.875 2.84375 2.828125 2.78125 2.734375 2.78125 C 2.609375 2.78125 2.398438 2.601562 2.109375 2.25 C 1.828125 1.90625 1.664062 1.632812 1.625 1.4375 C 1.625 1.21875 1.5625 1.039062 1.4375 0.90625 C 1.21875 0.65625 1.15625 -0.1875 1.25 -1.625 C 1.3125 -2.144531 1.34375 -2.40625 1.34375 -2.40625 C 1.40625 -2.59375 1.453125 -2.765625 1.484375 -2.921875 C 1.617188 -3.273438 1.78125 -3.597656 1.96875 -3.890625 C 2.1875 -4.242188 2.320312 -4.503906 2.375 -4.671875 C 2.425781 -4.847656 2.53125 -5.050781 2.6875 -5.28125 C 2.84375 -5.46875 3.015625 -5.738281 3.203125 -6.09375 C 3.398438 -6.445312 3.628906 -6.910156 3.890625 -7.484375 C 4.046875 -7.929688 4.171875 -8.273438 4.265625 -8.515625 C 4.367188 -8.753906 4.4375 -8.925781 4.46875 -9.03125 C 4.46875 -9.15625 4.515625 -9.328125 4.609375 -9.546875 C 4.960938 -10.347656 5.488281 -11.773438 6.1875 -13.828125 C 6.414062 -14.460938 6.597656 -14.992188 6.734375 -15.421875 C 6.878906 -15.859375 7.003906 -16.207031 7.109375 -16.46875 C 7.585938 -17.84375 8.066406 -19.253906 8.546875 -20.703125 C 9.023438 -22.160156 9.488281 -23.675781 9.9375 -25.25 C 10.894531 -28.414062 11.296875 -30.300781 11.140625 -30.90625 C 11.109375 -31.070312 11.039062 -31.203125 10.9375 -31.296875 C 10.8125 -31.390625 10.878906 -31.535156 11.140625 -31.734375 C 11.328125 -31.859375 11.390625 -31.957031 11.328125 -32.03125 C 11.265625 -32.113281 11.359375 -32.238281 11.609375 -32.40625 C 12.097656 -32.6875 12.546875 -32.859375 12.953125 -32.921875 Z M 12.953125 -32.921875 "/></g></g></g><g fill="#ffffff" fill-opacity="1"><g transform="translate(661.495146, 328.920828)"><g><path d="M 29.859375 -33.359375 C 30.109375 -33.421875 30.601562 -33.421875 31.34375 -33.359375 L 32.5 -33.359375 L 32.78125 -33.03125 C 33.070312 -32.707031 33.265625 -32 33.359375 -30.90625 C 33.421875 -30.59375 33.453125 -29.695312 33.453125 -28.21875 C 33.453125 -26.75 33.4375 -24.671875 33.40625 -21.984375 C 33.375 -17.953125 33.28125 -13.890625 33.125 -9.796875 C 33.09375 -9.054688 33.078125 -8.4375 33.078125 -7.9375 C 33.078125 -7.445312 33.0625 -7.054688 33.03125 -6.765625 C 32.988281 -6.546875 32.957031 -6.21875 32.9375 -5.78125 C 32.925781 -5.351562 32.90625 -4.675781 32.875 -3.75 C 32.8125 -1.925781 32.71875 -0.660156 32.59375 0.046875 C 32.46875 0.554688 32.367188 0.875 32.296875 1 C 32.234375 1.132812 32.125 1.28125 31.96875 1.4375 C 31.707031 1.664062 31.460938 1.863281 31.234375 2.03125 C 31.015625 2.207031 30.796875 2.363281 30.578125 2.5 C 30.222656 2.65625 29.96875 2.78125 29.8125 2.875 C 29.039062 3.257812 28.175781 3.453125 27.21875 3.453125 C 26.769531 3.453125 26.335938 3.375 25.921875 3.21875 C 25.441406 2.988281 25.085938 2.773438 24.859375 2.578125 C 24.640625 2.390625 24.238281 2.15625 23.65625 1.875 C 22.757812 1.425781 21.984375 0.804688 21.328125 0.015625 C 20.679688 -0.765625 20.164062 -1.601562 19.78125 -2.5 C 19.488281 -3.132812 19.34375 -3.46875 19.34375 -3.5 C 19.34375 -3.5 19.085938 -4.1875 18.578125 -5.5625 C 18.453125 -5.882812 18.285156 -6.257812 18.078125 -6.6875 C 17.867188 -7.125 17.601562 -7.789062 17.28125 -8.6875 C 17.050781 -9.363281 16.804688 -10.0625 16.546875 -10.78125 C 16.296875 -11.5 16.15625 -11.90625 16.125 -12 C 16.03125 -12.257812 15.695312 -13.171875 15.125 -14.734375 C 14.570312 -16.273438 14.101562 -17.578125 13.71875 -18.640625 C 13.34375 -19.710938 13.039062 -20.554688 12.8125 -21.171875 L 12.4375 -22.171875 L 12.28125 -21.453125 C 12.21875 -21.097656 12.144531 -20.132812 12.0625 -18.5625 C 11.988281 -17 11.90625 -14.8125 11.8125 -12 C 11.8125 -11.675781 11.800781 -11.21875 11.78125 -10.625 C 11.769531 -10.039062 11.765625 -9.394531 11.765625 -8.6875 C 11.765625 -7.976562 11.753906 -7.238281 11.734375 -6.46875 C 11.722656 -5.707031 11.71875 -4.988281 11.71875 -4.3125 C 11.71875 -1.4375 11.601562 0.285156 11.375 0.859375 C 11.28125 1.117188 11.054688 1.429688 10.703125 1.796875 C 10.347656 2.171875 10.015625 2.453125 9.703125 2.640625 C 9.347656 2.859375 9.125 3.035156 9.03125 3.171875 C 8.894531 3.296875 8.734375 3.359375 8.546875 3.359375 C 8.285156 3.359375 8.078125 3.421875 7.921875 3.546875 C 7.472656 3.835938 7.25 3.9375 7.25 3.84375 C 7.25 3.644531 6.976562 3.675781 6.4375 3.9375 C 6.082031 4.09375 5.789062 4.140625 5.5625 4.078125 C 5.3125 4.015625 5.03125 3.867188 4.71875 3.640625 C 4.414062 3.421875 4.128906 3.175781 3.859375 2.90625 C 3.585938 2.632812 3.335938 2.34375 3.109375 2.03125 C 2.890625 1.726562 2.75 1.453125 2.6875 1.203125 C 2.46875 0.273438 2.421875 -0.441406 2.546875 -0.953125 C 2.578125 -1.117188 2.609375 -1.640625 2.640625 -2.515625 C 2.671875 -3.398438 2.75 -4.65625 2.875 -6.28125 C 2.90625 -6.925781 2.9375 -7.71875 2.96875 -8.65625 C 3.007812 -9.601562 3.046875 -10.648438 3.078125 -11.796875 C 3.109375 -12.953125 3.128906 -14.175781 3.140625 -15.46875 C 3.160156 -16.769531 3.171875 -18.0625 3.171875 -19.34375 C 3.171875 -21.9375 3.15625 -24.046875 3.125 -25.671875 C 3.09375 -27.304688 3.039062 -28.445312 2.96875 -29.09375 C 2.875 -30.375 2.6875 -31.363281 2.40625 -32.0625 C 2.332031 -32.15625 2.398438 -32.242188 2.609375 -32.328125 C 2.816406 -32.410156 3.242188 -32.5 3.890625 -32.59375 C 4.492188 -32.71875 5.226562 -32.78125 6.09375 -32.78125 C 7.3125 -32.78125 8.523438 -32.664062 9.734375 -32.4375 C 10.953125 -32.21875 12.140625 -31.929688 13.296875 -31.578125 L 14.6875 -31.15625 L 15.21875 -30.578125 C 15.851562 -29.867188 16.398438 -29.234375 16.859375 -28.671875 C 17.328125 -28.117188 17.753906 -27.546875 18.140625 -26.953125 C 18.523438 -26.359375 18.882812 -25.734375 19.21875 -25.078125 C 19.5625 -24.421875 19.921875 -23.644531 20.296875 -22.75 C 20.742188 -21.757812 21.203125 -20.472656 21.671875 -18.890625 C 22.140625 -17.304688 22.644531 -15.648438 23.1875 -13.921875 C 23.40625 -13.148438 23.59375 -12.539062 23.75 -12.09375 C 23.914062 -11.644531 24.03125 -11.359375 24.09375 -11.234375 C 24.125 -11.203125 24.15625 -11.363281 24.1875 -11.71875 C 24.25 -12.257812 24.296875 -13.617188 24.328125 -15.796875 C 24.367188 -17.972656 24.40625 -20.753906 24.4375 -24.140625 C 24.46875 -26.347656 24.484375 -28.066406 24.484375 -29.296875 C 24.484375 -30.535156 24.484375 -31.3125 24.484375 -31.625 C 24.484375 -31.789062 24.550781 -31.925781 24.6875 -32.03125 C 24.832031 -32.144531 25 -32.242188 25.1875 -32.328125 C 25.382812 -32.410156 25.585938 -32.472656 25.796875 -32.515625 C 26.003906 -32.566406 26.171875 -32.59375 26.296875 -32.59375 C 26.648438 -32.65625 26.894531 -32.75 27.03125 -32.875 C 27.15625 -33.007812 27.601562 -33.109375 28.375 -33.171875 C 28.78125 -33.234375 29.101562 -33.269531 29.34375 -33.28125 C 29.59375 -33.300781 29.765625 -33.328125 29.859375 -33.359375 Z M 29.859375 -33.359375 "/></g></g></g><g fill="#ffffff" fill-opacity="1"><g transform="translate(696.919071, 328.920828)"><g><path d="M 18.34375 -20.0625 C 18.207031 -20.382812 18.109375 -20.546875 18.046875 -20.546875 C 17.785156 -20.546875 17.304688 -19.425781 16.609375 -17.1875 C 15.585938 -13.988281 15.09375 -12.375 15.125 -12.34375 C 15.15625 -12.300781 15.695312 -12.347656 16.75 -12.484375 C 17.164062 -12.546875 17.597656 -12.609375 18.046875 -12.671875 C 18.492188 -12.734375 18.972656 -12.796875 19.484375 -12.859375 C 19.867188 -12.921875 20.15625 -12.96875 20.34375 -13 C 20.539062 -13.039062 20.65625 -13.0625 20.6875 -13.0625 C 20.78125 -13.09375 20.460938 -14.195312 19.734375 -16.375 C 19.023438 -18.382812 18.5625 -19.613281 18.34375 -20.0625 Z M 12.953125 -32.921875 C 13.398438 -33.023438 14.070312 -33.023438 14.96875 -32.921875 C 15.90625 -32.828125 16.691406 -32.738281 17.328125 -32.65625 C 17.960938 -32.582031 18.441406 -32.515625 18.765625 -32.453125 C 19.441406 -32.347656 20.46875 -32.054688 21.84375 -31.578125 C 23.125 -31.265625 23.988281 -30.851562 24.4375 -30.34375 C 24.71875 -30.082031 25.082031 -29.34375 25.53125 -28.125 C 25.757812 -27.519531 26.066406 -26.640625 26.453125 -25.484375 C 26.835938 -24.335938 27.316406 -22.882812 27.890625 -21.125 C 28.335938 -19.78125 28.695312 -18.691406 28.96875 -17.859375 C 29.238281 -17.023438 29.453125 -16.398438 29.609375 -15.984375 C 29.773438 -15.472656 29.925781 -15.023438 30.0625 -14.640625 C 30.207031 -14.253906 30.332031 -13.898438 30.4375 -13.578125 C 30.59375 -13.203125 30.726562 -12.859375 30.84375 -12.546875 C 30.957031 -12.242188 31.046875 -11.984375 31.109375 -11.765625 C 31.523438 -10.734375 31.914062 -9.695312 32.28125 -8.65625 C 32.644531 -7.625 32.988281 -6.53125 33.3125 -5.375 C 33.664062 -4.1875 33.9375 -3.21875 34.125 -2.46875 C 34.320312 -1.71875 34.46875 -0.988281 34.5625 -0.28125 C 34.6875 0.539062 34.769531 1.1875 34.8125 1.65625 C 34.863281 2.125 34.90625 2.484375 34.9375 2.734375 C 34.96875 3.023438 34.984375 3.21875 34.984375 3.3125 C 34.921875 3.3125 34.769531 3.414062 34.53125 3.625 C 34.289062 3.832031 34.09375 3.9375 33.9375 3.9375 C 33.8125 3.9375 33.664062 3.984375 33.5 4.078125 C 33.375 4.171875 32.335938 4.234375 30.390625 4.265625 L 27.40625 4.265625 L 26.96875 4.03125 C 26.71875 3.9375 26.414062 3.710938 26.0625 3.359375 C 25.875 3.171875 25.738281 3.019531 25.65625 2.90625 C 25.570312 2.789062 25.519531 2.707031 25.5 2.65625 C 25.488281 2.613281 25.488281 2.578125 25.5 2.546875 C 25.519531 2.515625 25.5 2.484375 25.4375 2.453125 C 25.34375 2.347656 25.296875 2.265625 25.296875 2.203125 C 25.296875 2.140625 25.101562 1.929688 24.71875 1.578125 C 24.363281 1.234375 24.125 0.960938 24 0.765625 C 23.96875 0.703125 23.9375 0.625 23.90625 0.53125 C 23.875 0.4375 23.8125 0.304688 23.71875 0.140625 C 23.457031 -0.210938 23.488281 -0.335938 23.8125 -0.234375 C 23.9375 -0.234375 24.015625 -0.316406 24.046875 -0.484375 C 24.078125 -0.703125 24.140625 -0.75 24.234375 -0.625 C 24.304688 -0.5625 24.34375 -0.59375 24.34375 -0.71875 L 24.34375 -1.34375 C 24.269531 -1.976562 24.144531 -2.625 23.96875 -3.28125 C 23.800781 -3.9375 23.539062 -4.78125 23.1875 -5.8125 L 22.9375 -6.484375 L 22.265625 -6.4375 C 21.660156 -6.375 20.894531 -6.253906 19.96875 -6.078125 C 19.039062 -5.898438 17.9375 -5.648438 16.65625 -5.328125 C 16.394531 -5.265625 16.160156 -5.207031 15.953125 -5.15625 C 15.742188 -5.113281 15.5625 -5.054688 15.40625 -4.984375 C 15.28125 -4.953125 15.0625 -4.90625 14.75 -4.84375 C 14.445312 -4.78125 14.039062 -4.671875 13.53125 -4.515625 C 12.570312 -4.253906 12.046875 -4.078125 11.953125 -3.984375 C 11.828125 -3.859375 11.632812 -3.457031 11.375 -2.78125 C 11.019531 -1.882812 10.640625 -1.066406 10.234375 -0.328125 C 9.835938 0.398438 9.382812 1.132812 8.875 1.875 C 8.59375 2.257812 8.453125 2.5 8.453125 2.59375 C 8.453125 2.625 8.304688 2.785156 8.015625 3.078125 L 7.578125 3.546875 L 6.71875 3.5 C 6.207031 3.46875 5.875 3.40625 5.71875 3.3125 C 5.644531 3.28125 5.398438 3.359375 4.984375 3.546875 C 4.378906 3.835938 4.046875 3.890625 3.984375 3.703125 C 3.953125 3.628906 3.863281 3.546875 3.71875 3.453125 C 3.570312 3.359375 3.34375 3.28125 3.03125 3.21875 C 2.925781 3.1875 2.875 3.101562 2.875 2.96875 C 2.875 2.84375 2.828125 2.78125 2.734375 2.78125 C 2.609375 2.78125 2.398438 2.601562 2.109375 2.25 C 1.828125 1.90625 1.664062 1.632812 1.625 1.4375 C 1.625 1.21875 1.5625 1.039062 1.4375 0.90625 C 1.21875 0.65625 1.15625 -0.1875 1.25 -1.625 C 1.3125 -2.144531 1.34375 -2.40625 1.34375 -2.40625 C 1.40625 -2.59375 1.453125 -2.765625 1.484375 -2.921875 C 1.617188 -3.273438 1.78125 -3.597656 1.96875 -3.890625 C 2.1875 -4.242188 2.320312 -4.503906 2.375 -4.671875 C 2.425781 -4.847656 2.53125 -5.050781 2.6875 -5.28125 C 2.84375 -5.46875 3.015625 -5.738281 3.203125 -6.09375 C 3.398438 -6.445312 3.628906 -6.910156 3.890625 -7.484375 C 4.046875 -7.929688 4.171875 -8.273438 4.265625 -8.515625 C 4.367188 -8.753906 4.4375 -8.925781 4.46875 -9.03125 C 4.46875 -9.15625 4.515625 -9.328125 4.609375 -9.546875 C 4.960938 -10.347656 5.488281 -11.773438 6.1875 -13.828125 C 6.414062 -14.460938 6.597656 -14.992188 6.734375 -15.421875 C 6.878906 -15.859375 7.003906 -16.207031 7.109375 -16.46875 C 7.585938 -17.84375 8.066406 -19.253906 8.546875 -20.703125 C 9.023438 -22.160156 9.488281 -23.675781 9.9375 -25.25 C 10.894531 -28.414062 11.296875 -30.300781 11.140625 -30.90625 C 11.109375 -31.070312 11.039062 -31.203125 10.9375 -31.296875 C 10.8125 -31.390625 10.878906 -31.535156 11.140625 -31.734375 C 11.328125 -31.859375 11.390625 -31.957031 11.328125 -32.03125 C 11.265625 -32.113281 11.359375 -32.238281 11.609375 -32.40625 C 12.097656 -32.6875 12.546875 -32.859375 12.953125 -32.921875 Z M 12.953125 -32.921875 "/></g></g></g><g fill="#ffffff" fill-opacity="1"><g transform="translate(731.815034, 328.920828)"><g><path d="M 18.625 -33.03125 C 19.96875 -33.03125 21.332031 -32.929688 22.71875 -32.734375 C 24.113281 -32.546875 25.40625 -32.113281 26.59375 -31.4375 C 26.8125 -31.28125 27.066406 -31.007812 27.359375 -30.625 C 27.648438 -30.238281 27.929688 -29.820312 28.203125 -29.375 C 28.472656 -28.925781 28.695312 -28.476562 28.875 -28.03125 C 29.050781 -27.582031 29.140625 -27.210938 29.140625 -26.921875 C 29.140625 -26.472656 29.085938 -26.113281 28.984375 -25.84375 C 28.890625 -25.570312 28.75 -25.359375 28.5625 -25.203125 C 28.113281 -24.753906 27.632812 -24.414062 27.125 -24.1875 C 26.675781 -23.9375 26.453125 -23.742188 26.453125 -23.609375 C 26.453125 -23.515625 26.382812 -23.441406 26.25 -23.390625 C 26.125 -23.347656 26.015625 -23.359375 25.921875 -23.421875 C 25.890625 -23.578125 25.8125 -23.59375 25.6875 -23.46875 C 25.550781 -23.375 25.332031 -23.257812 25.03125 -23.125 C 24.726562 -23 24.5 -22.9375 24.34375 -22.9375 C 24.207031 -22.9375 24.015625 -23.082031 23.765625 -23.375 C 23.628906 -23.5 23.488281 -23.640625 23.34375 -23.796875 C 23.207031 -23.960938 23.054688 -24.144531 22.890625 -24.34375 C 22.441406 -24.789062 21.863281 -25.15625 21.15625 -25.4375 C 20.457031 -25.726562 19.804688 -25.875 19.203125 -25.875 C 18.691406 -25.875 18.15625 -25.757812 17.59375 -25.53125 C 17.03125 -25.3125 16.492188 -25.03125 15.984375 -24.6875 C 15.472656 -24.351562 15.007812 -23.976562 14.59375 -23.5625 C 14.175781 -23.144531 13.820312 -22.726562 13.53125 -22.3125 C 13.34375 -22.03125 13.113281 -21.597656 12.84375 -21.015625 C 12.570312 -20.441406 12.296875 -19.828125 12.015625 -19.171875 C 11.742188 -18.515625 11.503906 -17.890625 11.296875 -17.296875 C 11.085938 -16.710938 10.953125 -16.242188 10.890625 -15.890625 C 10.734375 -14.992188 10.628906 -14.097656 10.578125 -13.203125 C 10.535156 -12.304688 10.546875 -11.394531 10.609375 -10.46875 C 10.671875 -9.664062 10.757812 -8.925781 10.875 -8.25 C 10.988281 -7.582031 11.1875 -7 11.46875 -6.5 C 11.757812 -6.007812 12.160156 -5.59375 12.671875 -5.25 C 13.179688 -4.914062 13.882812 -4.671875 14.78125 -4.515625 C 14.945312 -4.484375 15.234375 -4.46875 15.640625 -4.46875 C 15.929688 -4.46875 16.269531 -4.472656 16.65625 -4.484375 C 17.039062 -4.503906 17.457031 -4.53125 17.90625 -4.5625 C 18.601562 -4.625 19.265625 -4.835938 19.890625 -5.203125 C 20.515625 -5.578125 21.066406 -6.003906 21.546875 -6.484375 L 21.984375 -6.8125 L 22.078125 -8.015625 C 22.140625 -9.171875 22.109375 -9.75 21.984375 -9.75 C 21.921875 -9.75 21.648438 -9.695312 21.171875 -9.59375 C 20.691406 -9.5 19.953125 -9.453125 18.953125 -9.453125 C 17.929688 -9.453125 17.3125 -9.515625 17.09375 -9.640625 C 16.09375 -10.160156 15.40625 -11.332031 15.03125 -13.15625 C 14.738281 -14.75 15.039062 -15.882812 15.9375 -16.5625 C 16.09375 -16.65625 16.21875 -16.738281 16.3125 -16.8125 C 16.414062 -16.894531 16.53125 -16.953125 16.65625 -16.984375 C 16.914062 -17.054688 17.078125 -17.125 17.140625 -17.1875 C 17.234375 -17.28125 17.382812 -17.359375 17.59375 -17.421875 C 17.800781 -17.484375 18 -17.515625 18.1875 -17.515625 C 18.382812 -17.515625 18.515625 -17.484375 18.578125 -17.421875 C 18.640625 -17.359375 19.164062 -17.375 20.15625 -17.46875 C 23.101562 -17.757812 25.3125 -17.90625 26.78125 -17.90625 C 27.550781 -17.90625 28.285156 -17.816406 28.984375 -17.640625 C 29.691406 -17.460938 30.347656 -17.101562 30.953125 -16.5625 C 31.335938 -16.207031 31.625 -15.75 31.8125 -15.1875 C 32.007812 -14.632812 32.0625 -14.132812 31.96875 -13.6875 C 31.9375 -13.519531 31.910156 -13.375 31.890625 -13.25 C 31.878906 -13.125 31.875 -12.976562 31.875 -12.8125 C 31.875 -12.425781 31.84375 -11.945312 31.78125 -11.375 C 31.71875 -10.800781 31.644531 -10.203125 31.5625 -9.578125 C 31.476562 -8.953125 31.378906 -8.347656 31.265625 -7.765625 C 31.160156 -7.191406 31.054688 -6.734375 30.953125 -6.390625 C 30.828125 -5.898438 30.765625 -5.5625 30.765625 -5.375 C 30.734375 -5.3125 30.691406 -5.179688 30.640625 -4.984375 C 30.597656 -4.796875 30.578125 -4.6875 30.578125 -4.65625 C 30.253906 -3.34375 30 -1.519531 29.8125 0.8125 C 29.8125 1.132812 29.742188 1.40625 29.609375 1.625 C 29.515625 1.820312 29.367188 2.03125 29.171875 2.25 C 28.984375 2.476562 28.828125 2.609375 28.703125 2.640625 C 28.578125 2.703125 28.429688 2.796875 28.265625 2.921875 C 28.109375 3.085938 27.828125 3.257812 27.421875 3.4375 C 27.023438 3.613281 26.75 3.703125 26.59375 3.703125 C 26.332031 3.703125 26.0625 3.765625 25.78125 3.890625 C 25.488281 4.015625 25.210938 4.078125 24.953125 4.078125 C 24.503906 4.078125 24.113281 3.925781 23.78125 3.625 C 23.445312 3.320312 23.148438 2.945312 22.890625 2.5 C 22.640625 2.050781 22.441406 1.585938 22.296875 1.109375 C 22.148438 0.628906 22.046875 0.210938 21.984375 -0.140625 L 21.9375 -0.578125 L 21.640625 -0.1875 C 21.421875 0.226562 21.085938 0.660156 20.640625 1.109375 C 20.191406 1.554688 19.703125 1.96875 19.171875 2.34375 C 18.648438 2.726562 18.097656 3.066406 17.515625 3.359375 C 16.941406 3.648438 16.414062 3.859375 15.9375 3.984375 C 15.550781 4.109375 15.132812 4.175781 14.6875 4.1875 C 14.238281 4.207031 13.820312 4.21875 13.4375 4.21875 C 11.9375 4.21875 10.503906 3.8125 9.140625 3 C 7.785156 2.1875 6.660156 1.21875 5.765625 0.09375 C 5.054688 -0.769531 4.460938 -1.726562 3.984375 -2.78125 C 3.503906 -3.84375 3.113281 -4.941406 2.8125 -6.078125 C 2.507812 -7.210938 2.285156 -8.363281 2.140625 -9.53125 C 1.992188 -10.695312 1.921875 -11.835938 1.921875 -12.953125 C 1.921875 -15.867188 2.398438 -18.691406 3.359375 -21.421875 C 4.316406 -24.160156 5.851562 -26.570312 7.96875 -28.65625 C 8.769531 -29.457031 9.5625 -30.128906 10.34375 -30.671875 C 11.125 -31.210938 11.945312 -31.660156 12.8125 -32.015625 C 13.675781 -32.367188 14.578125 -32.625 15.515625 -32.78125 C 16.460938 -32.945312 17.5 -33.03125 18.625 -33.03125 Z M 18.625 -33.03125 "/></g></g></g><g fill="#ffffff" fill-opacity="1"><g transform="translate(764.502974, 328.920828)"><g><path d="M 17.046875 -32.875 C 17.617188 -32.976562 18.320312 -33.03125 19.15625 -33.03125 C 20.082031 -33.03125 20.992188 -33.007812 21.890625 -32.96875 C 22.785156 -32.9375 23.679688 -32.84375 24.578125 -32.6875 C 25.691406 -32.53125 26.523438 -31.988281 27.078125 -31.0625 C 27.171875 -30.894531 27.238281 -30.769531 27.28125 -30.6875 C 27.332031 -30.613281 27.390625 -30.546875 27.453125 -30.484375 C 27.578125 -30.347656 27.625 -30.253906 27.59375 -30.203125 C 27.5625 -30.160156 27.644531 -29.945312 27.84375 -29.5625 C 27.96875 -29.40625 28.0625 -29.226562 28.125 -29.03125 C 28.1875 -28.84375 28.25 -28.625 28.3125 -28.375 C 28.382812 -28.144531 28.425781 -27.925781 28.4375 -27.71875 C 28.457031 -27.507812 28.4375 -27.3125 28.375 -27.125 C 28.238281 -26.382812 27.992188 -25.867188 27.640625 -25.578125 C 27.359375 -25.359375 26.910156 -25.265625 26.296875 -25.296875 C 25.847656 -25.359375 25.507812 -25.328125 25.28125 -25.203125 C 25.0625 -25.078125 24.84375 -25.078125 24.625 -25.203125 C 24.5 -25.296875 24.226562 -25.3125 23.8125 -25.25 C 23.039062 -25.09375 22.0625 -24.992188 20.875 -24.953125 C 20.5625 -24.921875 20.09375 -24.875 19.46875 -24.8125 C 18.84375 -24.75 18.082031 -24.65625 17.1875 -24.53125 C 16.769531 -24.46875 16.546875 -24.453125 16.515625 -24.484375 C 16.515625 -24.484375 16.65625 -24.578125 16.9375 -24.765625 C 17.195312 -24.929688 17.316406 -25.046875 17.296875 -25.109375 C 17.285156 -25.171875 17.117188 -25.203125 16.796875 -25.203125 C 16.640625 -25.203125 16.296875 -25.144531 15.765625 -25.03125 C 15.234375 -24.914062 14.679688 -24.785156 14.109375 -24.640625 C 13.535156 -24.503906 13.007812 -24.363281 12.53125 -24.21875 C 12.050781 -24.070312 11.757812 -23.953125 11.65625 -23.859375 C 11.625 -23.828125 11.578125 -23.601562 11.515625 -23.1875 C 11.453125 -22.769531 11.40625 -22.3125 11.375 -21.8125 C 11.34375 -21.320312 11.3125 -20.859375 11.28125 -20.421875 C 11.25 -19.992188 11.234375 -19.710938 11.234375 -19.578125 C 11.203125 -18.617188 11.203125 -18.140625 11.234375 -18.140625 C 11.265625 -18.140625 11.507812 -18.179688 11.96875 -18.265625 C 12.4375 -18.347656 13.101562 -18.46875 13.96875 -18.625 C 15.125 -18.84375 16.257812 -19 17.375 -19.09375 C 18.5 -19.195312 19.648438 -19.25 20.828125 -19.25 C 23.484375 -19.25 25.117188 -19.101562 25.734375 -18.8125 C 26.078125 -18.65625 26.359375 -18.414062 26.578125 -18.09375 C 26.804688 -17.769531 26.921875 -17.453125 26.921875 -17.140625 C 26.921875 -17.078125 27.050781 -16.691406 27.3125 -15.984375 C 27.5 -15.410156 27.632812 -14.890625 27.71875 -14.421875 C 27.800781 -13.960938 27.757812 -13.570312 27.59375 -13.25 C 27.34375 -12.707031 27.039062 -12.332031 26.6875 -12.125 C 26.332031 -11.914062 25.738281 -11.757812 24.90625 -11.65625 C 24.425781 -11.59375 24.113281 -11.53125 23.96875 -11.46875 C 23.832031 -11.40625 23.601562 -11.359375 23.28125 -11.328125 C 23.019531 -11.265625 22.859375 -11.222656 22.796875 -11.203125 C 22.734375 -11.191406 22.625 -11.21875 22.46875 -11.28125 C 22.269531 -11.34375 22.128906 -11.34375 22.046875 -11.28125 C 21.972656 -11.21875 21.835938 -11.25 21.640625 -11.375 C 21.484375 -11.46875 21.320312 -11.554688 21.15625 -11.640625 C 21 -11.722656 20.84375 -11.765625 20.6875 -11.765625 C 20.5 -11.765625 20.21875 -11.738281 19.84375 -11.6875 C 19.476562 -11.632812 18.992188 -11.578125 18.390625 -11.515625 C 17.234375 -11.359375 16.625 -11.3125 16.5625 -11.375 C 16.59375 -11.40625 16.578125 -11.4375 16.515625 -11.46875 C 16.003906 -11.632812 15.570312 -11.648438 15.21875 -11.515625 C 15.019531 -11.453125 14.875 -11.421875 14.78125 -11.421875 C 14.6875 -11.421875 14.703125 -11.46875 14.828125 -11.5625 C 14.921875 -11.625 14.957031 -11.65625 14.9375 -11.65625 C 14.925781 -11.65625 14.859375 -11.65625 14.734375 -11.65625 C 14.703125 -11.625 14.445312 -11.578125 13.96875 -11.515625 C 13.132812 -11.359375 12.484375 -11.238281 12.015625 -11.15625 C 11.554688 -11.082031 11.296875 -11.007812 11.234375 -10.9375 C 11.140625 -10.84375 11.066406 -10.5 11.015625 -9.90625 C 10.960938 -9.320312 10.921875 -8.664062 10.890625 -7.9375 C 10.859375 -7.21875 10.84375 -6.515625 10.84375 -5.828125 C 10.84375 -5.140625 10.84375 -4.671875 10.84375 -4.421875 C 10.8125 -4.285156 12.09375 -4.316406 14.6875 -4.515625 C 16.445312 -4.671875 17.910156 -4.785156 19.078125 -4.859375 C 20.242188 -4.941406 21.421875 -4.984375 22.609375 -4.984375 C 22.828125 -4.984375 23.132812 -4.972656 23.53125 -4.953125 C 23.9375 -4.941406 24.347656 -4.921875 24.765625 -4.890625 C 25.179688 -4.859375 25.566406 -4.800781 25.921875 -4.71875 C 26.273438 -4.644531 26.5 -4.546875 26.59375 -4.421875 C 26.6875 -4.316406 26.738281 -4.238281 26.75 -4.1875 C 26.769531 -4.144531 26.796875 -4.097656 26.828125 -4.046875 C 26.859375 -4.003906 26.914062 -3.925781 27 -3.8125 C 27.082031 -3.695312 27.21875 -3.546875 27.40625 -3.359375 C 27.757812 -2.972656 28.070312 -2.484375 28.34375 -1.890625 C 28.613281 -1.304688 28.78125 -0.769531 28.84375 -0.28125 C 28.9375 0.0625 28.96875 0.398438 28.9375 0.734375 C 28.90625 1.078125 28.84375 1.394531 28.75 1.6875 C 28.625 2.0625 28.375 2.410156 28 2.734375 C 27.632812 3.054688 27.195312 3.328125 26.6875 3.546875 C 26.332031 3.679688 25.890625 3.78125 25.359375 3.84375 C 24.835938 3.90625 24.5 3.90625 24.34375 3.84375 C 24.207031 3.75 23.945312 3.703125 23.5625 3.703125 C 23.40625 3.660156 23.28125 3.628906 23.1875 3.609375 C 23.09375 3.597656 22.960938 3.578125 22.796875 3.546875 C 22.640625 3.484375 22.472656 3.4375 22.296875 3.40625 C 22.117188 3.375 21.898438 3.34375 21.640625 3.3125 C 21.484375 3.28125 21.242188 3.238281 20.921875 3.1875 C 20.609375 3.144531 20.398438 3.125 20.296875 3.125 C 19.691406 3.019531 19.132812 2.941406 18.625 2.890625 C 18.113281 2.847656 17.363281 2.828125 16.375 2.828125 C 14.863281 2.828125 13.335938 2.875 11.796875 2.96875 C 10.265625 3.070312 8.78125 3.296875 7.34375 3.640625 C 6.863281 3.742188 6.382812 3.796875 5.90625 3.796875 C 5.289062 3.796875 4.710938 3.609375 4.171875 3.234375 C 3.628906 2.867188 3.226562 2.414062 2.96875 1.875 C 2.65625 1.039062 2.59375 0.191406 2.78125 -0.671875 C 2.8125 -0.828125 2.847656 -1.023438 2.890625 -1.265625 C 2.941406 -1.503906 2.96875 -1.785156 2.96875 -2.109375 C 3.039062 -3.648438 3.097656 -5.1875 3.140625 -6.71875 C 3.191406 -8.257812 3.25 -9.796875 3.3125 -11.328125 C 3.3125 -11.617188 3.316406 -11.988281 3.328125 -12.4375 C 3.347656 -12.882812 3.363281 -13.332031 3.375 -13.78125 C 3.394531 -14.226562 3.410156 -14.632812 3.421875 -15 C 3.441406 -15.363281 3.46875 -15.613281 3.5 -15.75 C 3.5 -16.414062 3.503906 -17.148438 3.515625 -17.953125 C 3.535156 -18.753906 3.5625 -19.664062 3.59375 -20.6875 L 3.640625 -24 L 3.3125 -24.484375 C 2.925781 -24.960938 2.625 -25.726562 2.40625 -26.78125 C 2.113281 -28.03125 1.984375 -28.910156 2.015625 -29.421875 C 2.046875 -29.710938 2.097656 -30.007812 2.171875 -30.3125 C 2.253906 -30.613281 2.410156 -30.894531 2.640625 -31.15625 C 2.859375 -31.375 3.050781 -31.484375 3.21875 -31.484375 C 3.40625 -31.484375 3.515625 -31.550781 3.546875 -31.6875 C 3.609375 -31.9375 3.847656 -32.015625 4.265625 -31.921875 C 4.523438 -31.859375 4.707031 -31.785156 4.8125 -31.703125 C 4.925781 -31.617188 5.035156 -31.5 5.140625 -31.34375 C 5.203125 -31.25 5.265625 -31.203125 5.328125 -31.203125 C 5.390625 -31.203125 5.597656 -31.21875 5.953125 -31.25 C 6.429688 -31.28125 7.0625 -31.34375 7.84375 -31.4375 C 8.632812 -31.53125 9.570312 -31.707031 10.65625 -31.96875 C 12.738281 -32.382812 14.867188 -32.6875 17.046875 -32.875 Z M 17.046875 -32.875 "/></g></g></g><g fill="#ffffff" fill-opacity="1"><g transform="translate(793.686917, 328.920828)"><g><path d="M 16.984375 -25.34375 C 16.128906 -25.34375 15.140625 -25.210938 14.015625 -24.953125 C 13.378906 -24.859375 13.007812 -24.78125 12.90625 -24.71875 C 12.8125 -24.65625 12.78125 -24.445312 12.8125 -24.09375 C 12.84375 -23.875 12.847656 -23.59375 12.828125 -23.25 C 12.816406 -22.914062 12.78125 -22.523438 12.71875 -22.078125 C 12.6875 -21.660156 12.660156 -21.15625 12.640625 -20.5625 C 12.628906 -19.976562 12.59375 -19.285156 12.53125 -18.484375 C 12.4375 -16.910156 12.40625 -16.109375 12.4375 -16.078125 C 12.53125 -15.984375 13.085938 -16.082031 14.109375 -16.375 C 14.585938 -16.5 15.113281 -16.65625 15.6875 -16.84375 C 16.269531 -17.039062 16.832031 -17.273438 17.375 -17.546875 C 17.914062 -17.816406 18.414062 -18.128906 18.875 -18.484375 C 19.34375 -18.835938 19.722656 -19.21875 20.015625 -19.625 C 20.429688 -20.269531 20.640625 -21.132812 20.640625 -22.21875 C 20.578125 -23.5 20.269531 -24.335938 19.71875 -24.734375 C 19.175781 -25.140625 18.265625 -25.34375 16.984375 -25.34375 Z M 16.078125 -32.640625 C 16.648438 -32.640625 17.3125 -32.609375 18.0625 -32.546875 C 18.820312 -32.484375 19.566406 -32.382812 20.296875 -32.25 C 21.035156 -32.125 21.753906 -31.960938 22.453125 -31.765625 C 23.160156 -31.578125 23.753906 -31.359375 24.234375 -31.109375 C 25.898438 -30.242188 27.289062 -29.1875 28.40625 -27.9375 C 29.53125 -26.6875 30.238281 -25.40625 30.53125 -24.09375 C 30.882812 -22.59375 30.820312 -21.054688 30.34375 -19.484375 C 30.238281 -19.066406 30.085938 -18.640625 29.890625 -18.203125 C 29.703125 -17.773438 29.492188 -17.363281 29.265625 -16.96875 C 29.046875 -16.570312 28.804688 -16.203125 28.546875 -15.859375 C 28.296875 -15.523438 28.0625 -15.265625 27.84375 -15.078125 C 27.582031 -14.847656 27.363281 -14.644531 27.1875 -14.46875 C 27.007812 -14.289062 26.859375 -14.140625 26.734375 -14.015625 C 26.128906 -13.441406 25.78125 -13.15625 25.6875 -13.15625 C 25.644531 -13.25 25.59375 -13.296875 25.53125 -13.296875 C 25.46875 -13.296875 25.4375 -13.265625 25.4375 -13.203125 C 25.4375 -13.140625 25.296875 -13.007812 25.015625 -12.8125 C 24.597656 -12.65625 24.273438 -12.460938 24.046875 -12.234375 C 23.660156 -11.953125 23.375 -11.78125 23.1875 -11.71875 L 22.890625 -11.5625 C 22.859375 -11.5625 22.828125 -11.546875 22.796875 -11.515625 C 22.796875 -11.390625 23.722656 -10.398438 25.578125 -8.546875 C 26.765625 -7.328125 27.765625 -6.273438 28.578125 -5.390625 C 29.398438 -4.515625 30.003906 -3.773438 30.390625 -3.171875 C 30.484375 -3.003906 30.632812 -2.757812 30.84375 -2.4375 C 31.050781 -2.125 31.25 -1.78125 31.4375 -1.40625 C 31.632812 -1.039062 31.8125 -0.695312 31.96875 -0.375 C 32.125 -0.0625 32.21875 0.191406 32.25 0.390625 C 32.351562 0.804688 32.425781 1.148438 32.46875 1.421875 C 32.519531 1.691406 32.53125 1.9375 32.5 2.15625 C 32.46875 2.382812 32.394531 2.59375 32.28125 2.78125 C 32.164062 2.976562 31.984375 3.1875 31.734375 3.40625 C 31.210938 3.914062 30.582031 4.296875 29.84375 4.546875 C 29.113281 4.804688 28.378906 4.9375 27.640625 4.9375 C 26.785156 4.9375 26.050781 4.710938 25.4375 4.265625 C 25.28125 4.140625 25.144531 4.046875 25.03125 3.984375 C 24.914062 3.921875 24.796875 3.859375 24.671875 3.796875 C 24.410156 3.691406 24.140625 3.5 23.859375 3.21875 C 23.566406 3.019531 23.242188 2.773438 22.890625 2.484375 C 22.546875 2.203125 22.203125 1.894531 21.859375 1.5625 C 21.523438 1.226562 21.210938 0.875 20.921875 0.5 C 20.640625 0.132812 20.414062 -0.207031 20.25 -0.53125 C 19.550781 -1.78125 18.757812 -3.035156 17.875 -4.296875 C 17 -5.554688 16.097656 -6.75 15.171875 -7.875 C 14.753906 -8.382812 14.441406 -8.757812 14.234375 -9 C 14.023438 -9.238281 13.90625 -9.375 13.875 -9.40625 C 13.8125 -9.4375 13.617188 -9.40625 13.296875 -9.3125 C 13.003906 -9.21875 12.734375 -9.171875 12.484375 -9.171875 C 12.253906 -9.171875 12.125 -9.101562 12.09375 -8.96875 C 12 -8.519531 11.90625 -7.160156 11.8125 -4.890625 C 11.707031 -3.234375 11.625 -1.890625 11.5625 -0.859375 C 11.5 0.160156 11.453125 0.847656 11.421875 1.203125 C 11.359375 1.929688 11.242188 2.398438 11.078125 2.609375 C 10.921875 2.816406 10.796875 2.972656 10.703125 3.078125 C 10.222656 3.453125 9.519531 3.707031 8.59375 3.84375 C 8.332031 3.90625 8.085938 3.953125 7.859375 3.984375 C 7.640625 4.015625 7.453125 4.0625 7.296875 4.125 C 7.035156 4.25 6.828125 4.3125 6.671875 4.3125 C 6.609375 4.382812 6.253906 4.257812 5.609375 3.9375 C 5.128906 3.707031 4.710938 3.472656 4.359375 3.234375 C 4.015625 2.992188 3.710938 2.632812 3.453125 2.15625 C 3.328125 1.9375 3.222656 1.726562 3.140625 1.53125 C 3.066406 1.34375 3.007812 1.148438 2.96875 0.953125 C 2.9375 0.765625 2.921875 0.539062 2.921875 0.28125 C 2.921875 0.03125 2.9375 -0.269531 2.96875 -0.625 C 3.007812 -1.039062 3.035156 -1.640625 3.046875 -2.421875 C 3.066406 -3.203125 3.109375 -4.171875 3.171875 -5.328125 C 3.328125 -9.296875 3.441406 -12.421875 3.515625 -14.703125 C 3.597656 -16.992188 3.660156 -18.507812 3.703125 -19.25 C 3.734375 -20.207031 3.753906 -20.96875 3.765625 -21.53125 C 3.785156 -22.09375 3.78125 -22.453125 3.75 -22.609375 C 3.675781 -22.796875 3.5 -23.019531 3.21875 -23.28125 C 2.738281 -23.726562 2.398438 -24.269531 2.203125 -24.90625 C 1.890625 -26.09375 1.941406 -27.132812 2.359375 -28.03125 C 2.484375 -28.289062 2.546875 -28.785156 2.546875 -29.515625 L 2.546875 -30.578125 L 2.921875 -30.765625 C 3.054688 -30.890625 3.320312 -30.992188 3.71875 -31.078125 C 4.113281 -31.160156 4.394531 -31.203125 4.5625 -31.203125 L 4.609375 -31.203125 C 4.640625 -31.171875 4.75 -31.171875 4.9375 -31.203125 C 5.164062 -31.296875 6.351562 -31.535156 8.5 -31.921875 C 10.988281 -32.398438 13.515625 -32.640625 16.078125 -32.640625 Z M 16.078125 -32.640625 "/></g></g></g><path stroke-linecap="butt" transform="matrix(0.75, 0, 0, 0.75, 834.016183, 315.045829)" fill="none" stroke-linejoin="miter" d="M -0.000743644 2.001395 L 337.978445 2.001395 " stroke="#ffffff" stroke-width="4" stroke-opacity="1" stroke-miterlimit="4"/></svg>